<?xml version="1.0" encoding="UTF-8" standalone="no"?>
<svg
   xmlns:dc="http://purl.org/dc/elements/1.1/"
   xmlns:cc="http://creativecommons.org/ns#"
   xmlns:rdf="http://www.w3.org/1999/02/22-rdf-syntax-ns#"
   xmlns:svg="http://www.w3.org/2000/svg"
   xmlns="http://www.w3.org/2000/svg"
   xmlns:sodipodi="http://sodipodi.sourceforge.net/DTD/sodipodi-0.dtd"
   xmlns:inkscape="http://www.inkscape.org/namespaces/inkscape"
   version="1.1"
   id="svg2"
   width="435.11111"
   height="479.11111"
   viewBox="0 0 435.11111 479.11111"
   sodipodi:docname="maibennett_logo_new.svg"
   inkscape:version="1.0.1 (3bc2e813f5, 2020-09-07)">
  <metadata
     id="metadata8">
    <rdf:RDF>
      <cc:Work
         rdf:about="">
        <dc:format>image/svg+xml</dc:format>
        <dc:type
           rdf:resource="http://purl.org/dc/dcmitype/StillImage" />
        <dc:title></dc:title>
      </cc:Work>
    </rdf:RDF>
  </metadata>
  <defs
     id="defs6" />
  <sodipodi:namedview
     pagecolor="#303030"
     bordercolor="#666666"
     borderopacity="1"
     objecttolerance="10"
     gridtolerance="10"
     guidetolerance="10"
     inkscape:pageopacity="1"
     inkscape:pageshadow="2"
     inkscape:window-width="1500"
     inkscape:window-height="930"
     id="namedview4"
     showgrid="false"
     inkscape:pagecheckerboard="true"
     borderlayer="true"
     inkscape:zoom="0.86772068"
     inkscape:cx="185.68826"
     inkscape:cy="308.17259"
     inkscape:window-x="-7"
     inkscape:window-y="-7"
     inkscape:window-maximized="1"
     inkscape:current-layer="g10" />
  <g
     inkscape:groupmode="layer"
     inkscape:label="Image"
     id="g10">
    <g
       id="g837"
       transform="translate(4.8934438,4.0633956)">
      <path
         style="fill:#a5a5a5;stroke-width:0.444444"
         d="M 90.76988,474.11191 C 89.99348,473.15498 1.3558955,295.63259 0.66658973,293.65402 -0.20102016,291.16364 -0.18320566,285.37886 0.70016858,282.75018 1.0852613,281.60424 21.535261,240.46667 46.144613,191.33333 L 90.888889,102 H 212.66667 334.44444 l 46.61167,93.11182 46.61168,93.11182 -46.61168,93.1104 -46.61167,93.1104 -121.61158,0.11191 c -96.95407,0.0892 -121.703105,0 -122.06298,-0.44444 z M 372.66592,376.44593 416.88785,288.00297 372.77726,199.89037 328.66667,111.77778 212.77842,111.66583 96.890173,111.55388 52.72264,199.88805 8.5551106,288.22223 52.722222,376.55555 96.889333,464.88889 H 212.66667 328.444 Z m -53.95303,3.31119 c -1.56347,-0.33916 -4.55889,-1.46683 -6.65649,-2.50593 -7.30901,-3.62071 -13.84288,-11.60263 -15.7587,-19.25119 -2.22118,-8.8676 -0.66471,-17.85802 4.29494,-24.80835 7.57637,-10.61734 19.98671,-15.37134 32.11404,-12.30185 6.31417,1.59814 11.01878,4.62009 15.88136,10.2012 7.80458,8.95783 9.07358,22.86449 3.0841,33.79789 -2.45071,4.47361 -8.34523,10.07857 -13.0258,12.38594 -6.1635,3.03839 -13.28296,3.92497 -19.93345,2.48229 z M 89.874951,375.44444 c -0.312747,-0.38093 -0.264916,-3.76857 0.152173,-10.77777 0.334556,-5.62223 0.615316,-10.67223 0.623911,-11.22223 0.02289,-1.46481 0.976951,-1.24877 4.185209,0.94769 4.259422,2.91611 7.973906,4.03595 13.385976,4.03561 6.87462,-4.4e-4 11.87149,-2.077 16.75911,-6.96463 1.48697,-1.48697 2.82038,-2.47455 3.10423,-2.29912 0.75715,0.46794 0.1571,25.96354 -0.62271,26.45827 -0.31568,0.20027 -8.79947,0.36719 -18.85288,0.37093 -14.090344,0.005 -18.383424,-0.12049 -18.735019,-0.54875 z m 112.451029,0 c -0.44295,-0.54744 -2.80992,-79.5049 -2.4182,-80.66666 0.10302,-0.30556 0.51592,-0.54696 0.91755,-0.53644 0.40162,0.0105 7.23023,4.07697 15.17467,9.03657 l 14.44444,9.01747 0.28687,4.03816 c 0.44102,6.20834 2.16762,10.4207 6.11328,14.91454 1.24658,1.41979 2.26652,2.88229 2.26652,3.25001 0,0.36773 0.51163,9.57159 1.13695,20.45302 0.87771,15.27336 1.01731,19.92859 0.61225,20.41666 -0.72764,0.87675 -37.82722,0.95057 -38.53433,0.0767 z M 101.96264,353.82181 c -4.960538,-1.81917 -9.082987,-5.64439 -11.435982,-10.61144 -1.311498,-2.76851 -1.415547,-3.33116 -1.415547,-7.65482 0,-4.44324 0.07677,-4.82742 1.603582,-8.0244 2.877302,-6.02477 8.355542,-10.14271 14.667497,-11.02541 4.14014,-0.57898 9.28857,0.35032 12.36337,2.23161 0.88189,0.53958 1.08724,0.46936 2.16982,-0.74193 9.17078,-10.26124 37.72493,-42.68383 37.97754,-43.12266 0.19173,-0.33304 -0.0319,-1.22355 -0.51809,-2.06273 -2.22386,-3.83879 -2.88763,-10.08008 -1.55467,-14.61825 1.76215,-5.99941 6.48999,-10.89103 12.44016,-12.87113 2.42015,-0.80537 3.66948,-0.94642 7.06656,-0.79785 3.67213,0.16061 4.49491,0.36249 7.47013,1.83292 9.36397,4.62793 13.30288,15.41295 9.15943,25.07922 -0.48211,1.12472 -0.71953,2.19823 -0.52761,2.38559 0.37007,0.36127 44.8827,28.06142 46.3862,28.86607 0.74281,0.39754 1.21542,0.17919 2.97839,-1.37607 5.05358,-4.45818 12.17826,-6.27668 18.10664,-4.62153 0.75077,0.20961 4.25244,-3.70019 21.11111,-23.57172 11.11608,-13.10266 20.28226,-24.02784 20.36928,-24.27817 0.087,-0.25034 -0.37884,-1.65192 -1.03526,-3.11461 -1.72392,-3.84143 -2.28144,-7.76194 -1.61677,-11.36926 1.8497,-10.0387 10.38183,-16.70942 20.48622,-16.01685 11.90922,0.81628 20.25702,12.57352 17.12987,24.12612 -3.12647,11.55012 -15.7788,17.47129 -26.67412,12.48325 l -2.4329,-1.11382 -9.69317,11.41637 c -5.33125,6.27899 -14.23195,16.76873 -19.77935,23.31052 l -10.08618,11.89418 2.2186,2.75326 c 3.23312,4.01226 4.15205,6.68268 4.17242,12.12506 0.0134,3.58313 -0.17415,4.91817 -0.96786,6.88889 -1.98211,4.9214 -6.29949,9.23749 -11.21306,11.20971 -3.48603,1.39923 -10.29175,1.39923 -13.77778,0 -4.921,-1.9752 -9.14328,-6.20094 -11.16461,-11.17378 -0.83343,-2.05037 -1.01249,-3.34656 -1.03291,-7.47676 l -0.0247,-4.99638 -24.33438,-15.11473 c -13.38391,-8.3131 -24.5894,-15.11473 -24.90111,-15.11473 -0.3117,0 -1.00412,0.30637 -1.53872,0.68082 -4.27096,2.9915 -12.295,3.37602 -17.82858,0.85438 -1.30931,-0.59665 -2.5626,-0.97232 -2.78509,-0.83482 -0.22249,0.1375 -8.73335,9.68617 -18.91303,21.21926 -10.17968,11.53309 -18.90614,21.41381 -19.39214,21.95717 l -0.88363,0.98791 1.22633,2.73263 c 1.75417,3.90881 2.31838,7.69731 1.69143,11.3574 -1.09223,6.37641 -5.18285,11.71262 -11.11507,14.4996 -2.65759,1.24855 -3.51603,1.42441 -7.44823,1.52588 -3.44788,0.089 -4.95111,-0.0711 -6.70403,-0.71397 z m 46.54394,-10.15514 c -0.22747,-0.42778 -1.76172,-7.73844 -3.40944,-16.2459 l -2.99586,-15.46812 1.09774,-1.19855 c 0.60376,-0.6592 5.03646,-5.64855 9.85044,-11.08743 4.81398,-5.43889 8.93541,-9.88889 9.15872,-9.88889 0.72338,0 0.94344,0.79578 2.05978,7.44852 1.13764,6.77968 1.47089,8.29411 1.76121,8.00379 0.0936,-0.0936 0.77813,-3.9587 1.52113,-8.58905 0.74299,-4.63035 1.5155,-8.7118 1.71668,-9.06989 0.28186,-0.50171 1.42756,-0.66165 4.99385,-0.69715 3.81085,-0.0379 5.21665,-0.25578 7.96139,-1.23373 l 3.33334,-1.18768 3.11111,1.888 c 2.36321,1.43412 3.14253,2.1563 3.24181,3.00412 0.17912,1.52957 -9.19807,53.84483 -9.77621,54.54146 -0.35653,0.42958 -4.23786,0.55827 -16.83772,0.55827 -15.1408,0 -16.40555,-0.0586 -16.78797,-0.77777 z M 93.050462,315.77999 C 92.686302,314.831 99.538364,192.42718 100.0231,191.22222 l 0.40229,-1 h 22.39955 c 17.38811,0 22.49823,0.1243 22.84062,0.55556 0.24259,0.30555 2.64794,13.44985 5.34522,29.20955 l 4.90415,28.65399 -1.77553,3.23509 c -0.97653,1.7793 -2.05501,4.285 -2.39663,5.56823 -0.82819,3.11103 -0.79839,9.33068 0.0592,12.34739 0.37996,1.3366 0.79886,2.85707 0.93088,3.37881 0.1901,0.75123 -1.20795,2.57779 -6.71848,8.77778 -3.82719,4.30604 -7.24228,7.82916 -7.58908,7.82916 -0.77219,0 -0.23525,2.41401 -5.52516,-24.84062 -2.43826,-12.56234 -4.53825,-22.94568 -4.66665,-23.07408 -0.31134,-0.31134 -0.28662,0.52588 0.20091,6.80359 0.89328,11.50233 1.39928,30.55847 1.09592,41.2728 l -0.31288,11.05059 -5.32361,5.98188 c -2.92799,3.29003 -5.60937,6.09153 -5.95862,6.22555 -0.34925,0.13402 -1.86194,-0.10059 -3.36153,-0.52135 -3.50159,-0.9825 -9.24896,-0.99173 -12.64035,-0.0203 -1.42998,0.4096 -3.856841,1.4296 -5.393032,2.26666 -3.212872,1.75068 -3.152716,1.7359 -3.489796,0.85749 z M 234.88889,295.02104 c -3.97792,-2.27107 -33.96368,-21.06339 -34.62153,-21.6976 -0.81125,-0.78209 -0.82381,-1.21276 -0.32599,-11.17954 0.28477,-5.70137 0.60843,-12.46612 0.71923,-15.03279 l 0.20145,-4.66667 -1.07625,5.33334 c -0.59193,2.93333 -1.23678,6.13333 -1.433,7.11111 -0.19623,0.97778 -0.55453,1.77778 -0.79623,1.77778 -0.24169,0 -1.28829,-1.6 -2.32576,-3.55556 -3.20357,-6.03847 -8.27469,-10.21404 -14.58313,-12.00778 -1.45622,-0.41406 -2.89076,-0.98192 -3.18785,-1.2619 -0.42186,-0.39758 0.31744,-5.77486 3.37533,-24.55031 2.15352,-13.22267 4.0584,-24.27245 4.23306,-24.55506 0.23358,-0.37794 6.30334,-0.51384 22.94954,-0.51384 h 22.63197 l 0.2335,1 c 0.37305,1.59762 6.00642,103.52809 5.74504,103.95101 -0.30709,0.49689 -0.65594,0.46637 -1.73938,-0.15219 z"
         id="path851" />
      <path
         style="fill:#f5ae30;stroke-width:0.444444"
         d="M 91.002449,473.44444 C 90.622471,473.01667 69.991471,432.01296 45.155791,382.3251 L 0,291.98352 v -3.76997 -3.76998 L 45.157067,194.11068 C 69.993453,144.42758 90.624453,103.42778 91.003729,103 c 0.653595,-0.73718 7.002297,-0.77742 121.620711,-0.77097 66.51211,0.004 121.15756,0.15374 121.43432,0.33333 0.27677,0.17959 21.35171,42.02621 46.83319,92.99248 l 46.32999,92.66596 -46.10116,92.22293 c -25.35563,50.72262 -46.41157,92.57294 -46.79096,93.00071 -0.65377,0.73716 -7.00953,0.77778 -121.66315,0.77778 -114.653226,0 -121.009444,-0.0404 -121.664221,-0.77778 z M 373.16667,376.77703 417.44415,288.22074 373.1663,199.66592 328.88844,111.11111 H 212.6663 96.444146 l -44.277479,88.5563 -44.2774821,88.5563 44.2778501,88.55481 44.277854,88.55481 H 212.66704 328.88919 Z m -53.02341,2.73485 c -9.85435,-1.64528 -19.09011,-9.52213 -22.64362,-19.31195 -1.99886,-5.50681 -2.14665,-13.79617 -0.34209,-19.18855 3.29037,-9.83229 12.11034,-17.85251 21.91939,-19.93186 14.77373,-3.13178 29.83741,5.59921 34.5607,20.03159 1.47756,4.51481 1.6668,12.07862 0.41609,16.63113 -4.11602,14.98206 -18.65621,24.31649 -33.91047,21.76964 z M 90.350969,375 c -0.516311,-0.67565 0.616595,-21.24998 1.202591,-21.83985 0.2288,-0.23032 0.98836,0.10572 1.819186,0.80481 2.091463,1.75985 6.224392,3.72817 9.400464,4.47701 7.85283,1.85149 15.75164,-0.31833 21.81852,-5.99359 1.57018,-1.46883 3.00757,-2.6706 3.19419,-2.6706 0.57525,0 -0.24043,25.06352 -0.82784,25.43731 -0.2825,0.17977 -8.53915,0.32992 -18.34811,0.33366 C 94.85856,375.55399 90.678311,375.42836 90.350969,375 Z m 112.437391,0 c -0.35873,-0.46177 -2.40162,-67.72985 -2.35676,-77.60311 0.0114,-2.50491 0.10105,-2.79165 0.79062,-2.52838 1.01213,0.3864 27.20428,16.6202 28.22222,17.49202 0.57466,0.49216 0.77778,1.33885 0.77778,3.24203 0,5.67033 2.05803,11.06465 5.98946,15.69898 l 2.34315,2.76209 1.1582,20.39185 c 0.90997,16.02127 1.04103,20.46629 0.61148,20.73916 -0.30071,0.19102 -8.77224,0.35037 -18.82565,0.35411 -14.10325,0.005 -18.3775,-0.12011 -18.7105,-0.54875 z m -99.89947,-21.3764 c -9.159104,-3.03076 -14.788166,-11.92613 -13.245615,-20.93149 1.085409,-6.33656 4.611014,-11.11668 10.2574,-13.90728 3.298275,-1.63009 3.514605,-1.67372 8.298495,-1.67372 4.42963,0 5.16815,0.12001 7.5212,1.22222 1.4351,0.67222 2.8351,1.21002 3.11111,1.19511 0.39869,-0.0216 32.28083,-35.78013 38.44621,-43.12075 l 1.49991,-1.78583 -1.49991,-3.19982 c -1.40519,-2.99775 -1.49991,-3.49452 -1.49991,-7.86649 0,-4.32365 0.10405,-4.8863 1.41554,-7.65481 1.95604,-4.12908 4.87275,-7.11091 8.90491,-9.10371 10.28454,-5.0829 22.92842,0.40165 26.21394,11.37084 1.13526,3.79023 0.94808,8.53004 -0.47758,12.09364 -0.64236,1.60564 -1.16792,3.10906 -1.16792,3.34094 0,0.49109 47.2578,29.9531 48.04552,29.9531 0.29093,0 1.50609,-0.91398 2.70036,-2.03108 4.07456,-3.81128 10.12791,-5.64739 15.49923,-4.70125 2.15937,0.38037 2.94672,0.36801 3.45748,-0.0542 0.52893,-0.43728 38.35006,-44.88712 40.40944,-47.4918 0.45956,-0.58124 0.32859,-1.15561 -0.75198,-3.29786 -4.83696,-9.58933 -0.765,-20.95872 9.19171,-25.66432 2.71872,-1.28488 3.4045,-1.41991 7.22601,-1.42286 5.02399,-0.004 7.67681,0.78796 11.27717,3.36613 7.18814,5.14731 9.81529,14.9592 6.11979,22.85628 -4.54738,9.71753 -15.69679,13.79441 -25.30024,9.25125 -1.32438,-0.62653 -2.55867,-0.96176 -2.75999,-0.7496 -1.69989,1.79138 -39.25537,46.29357 -39.43052,46.72406 -0.12587,0.30937 0.57954,1.43948 1.56756,2.51137 2.16762,2.35158 3.41864,4.70977 4.30613,8.11707 3.49738,13.42736 -9.33442,26.20168 -22.73537,22.63354 -9.17528,-2.44301 -15.51569,-11.74281 -14.08075,-20.65295 0.2396,-1.48778 0.32077,-2.87645 0.18037,-3.08595 -0.37304,-0.55667 -48.51549,-30.40096 -49.42342,-30.63838 -0.42251,-0.11049 -2.11217,0.46074 -3.7548,1.26941 -2.57671,1.26851 -3.55092,1.49498 -7.09837,1.65013 -3.377,0.1477 -4.63512,0.006 -7.04039,-0.79474 -1.61074,-0.53602 -3.0426,-1.159 -3.1819,-1.3844 -0.13931,-0.2254 -0.60144,-0.40982 -1.02697,-0.40982 -0.88818,0 -40.06274,44.07 -40.06274,45.06919 0,0.34956 0.48251,1.60199 1.07224,2.78319 4.56876,9.15095 0.55458,20.43981 -8.92816,25.10815 -2.63219,1.29582 -3.43801,1.47185 -7.22014,1.5772 -2.65449,0.074 -4.92658,-0.10288 -6.03505,-0.46968 z m 46.12215,-10.17916 c -0.23712,-0.30555 -1.67926,-7.05555 -3.20475,-15 -1.52549,-7.94444 -2.86951,-14.86204 -2.98673,-15.37245 -0.16489,-0.71799 1.91062,-3.33304 9.17139,-11.55555 5.16148,-5.84515 9.65669,-10.68869 9.98937,-10.76341 0.68724,-0.15435 0.66293,-0.25341 2.27012,9.24697 0.64098,3.78889 1.32698,7.05902 1.52445,7.26696 0.50689,0.53376 0.66626,-0.18507 2.25163,-10.15585 0.77735,-4.88889 1.56244,-9.05194 1.74464,-9.25122 0.1822,-0.19928 2.40823,-0.4209 4.94672,-0.49248 3.65838,-0.10316 5.2592,-0.37005 7.71988,-1.28708 l 3.10444,-1.15693 2.62853,1.64941 c 1.4457,0.90718 2.82711,1.9668 3.06981,2.35473 0.50208,0.8025 -8.73183,53.52507 -9.54635,54.50651 -0.67652,0.81515 -32.05088,0.82513 -32.68315,0.0104 z M 93.479173,311.66667 c 0.150356,-2.13889 1.689702,-29.58889 3.420769,-61 1.731067,-31.41111 3.245808,-57.76111 3.366088,-58.55556 l 0.21869,-1.44444 h 22.39436 c 20.94305,0 22.40943,0.0504 22.62696,0.77777 0.45563,1.52355 9.60507,55.50674 9.60507,56.67152 0,0.65258 -0.60717,2.14345 -1.34927,3.31305 -3.27024,5.15409 -4.19978,13.24416 -2.22864,19.39652 0.96336,3.00687 0.96504,3.06053 0.12501,4 -0.46829,0.52374 -3.41196,3.85225 -6.54149,7.39669 -3.12952,3.54445 -5.9993,6.44445 -6.37728,6.44445 -0.55439,0 -1.65805,-4.98293 -5.7095,-25.77778 -2.76224,-14.17778 -5.1287,-26.05641 -5.25878,-26.39695 -0.6672,-1.74659 -0.67551,0.78428 -0.0315,9.58571 1.06998,14.62196 1.5964,32.72135 1.28491,44.1777 -0.32109,11.80919 0.51759,9.59548 -6.77158,17.87352 -2.30528,2.61801 -4.40528,4.75785 -4.66667,4.75521 -0.26139,-0.003 -1.47526,-0.32701 -2.69748,-0.7208 -1.41659,-0.45641 -3.83347,-0.72128 -6.66667,-0.73058 -4.78954,-0.0157 -8.322378,0.88001 -12.02208,3.04818 -2.932094,1.71832 -3.032302,1.61468 -2.720965,-2.81421 z M 218.27623,284.24623 c -9.13697,-5.70279 -17.00054,-10.7008 -17.4746,-11.10671 -0.80461,-0.68893 -0.84295,-1.15787 -0.57639,-7.04988 0.15705,-3.47153 0.56997,-10.71186 0.91759,-16.08964 0.64969,-10.05076 0.78991,-14.74756 0.42953,-14.38718 -0.16099,0.16099 -3.79458,19.09725 -3.79458,19.77527 0,0.0921 -0.17255,0.16746 -0.38343,0.16746 -0.21089,0 -1.04227,-1.33826 -1.8475,-2.97392 -2.81225,-5.71251 -9.20042,-10.75641 -15.45024,-12.19904 -1.25332,-0.28931 -2.35616,-0.74374 -2.45075,-1.00985 -0.21767,-0.6124 7.43321,-47.49065 7.8648,-48.18899 0.47996,-0.77659 44.66776,-0.73875 44.91917,0.0385 0.14099,0.43587 5.22209,90.52998 5.68291,100.76489 0.0846,1.87918 -0.042,2.45386 -0.55719,2.52969 -0.36666,0.054 -8.14236,-4.56779 -17.27932,-10.27057 z"
         id="path849" />
      <path
         style="fill:#bd3782;stroke-width:0.444444"
         d="M 91.002449,473.44444 C 90.622471,473.01667 69.991471,432.01296 45.155791,382.3251 L 0,291.98352 v -3.76997 -3.76998 L 45.157067,194.11068 C 69.993453,144.42758 90.624453,103.42778 91.003729,103 c 0.653595,-0.73718 7.002297,-0.77742 121.620711,-0.77097 66.51211,0.004 121.15756,0.15374 121.43432,0.33333 0.27677,0.17959 21.35171,42.02621 46.83319,92.99248 l 46.32999,92.66596 -46.10116,92.22293 c -25.35563,50.72262 -46.41157,92.57294 -46.79096,93.00071 -0.65377,0.73716 -7.00953,0.77778 -121.66315,0.77778 -114.653226,0 -121.009444,-0.0404 -121.664221,-0.77778 z M 373.16667,376.77703 417.44415,288.22074 373.1663,199.66592 328.88844,111.11111 H 212.6663 96.444146 l -44.277479,88.5563 -44.2774821,88.5563 44.2778501,88.55481 44.277854,88.55481 H 212.66704 328.88919 Z m -53.02341,2.73485 c -9.85435,-1.64528 -19.09011,-9.52213 -22.64362,-19.31195 -1.99886,-5.50681 -2.14665,-13.79617 -0.34209,-19.18855 3.29037,-9.83229 12.11034,-17.85251 21.91939,-19.93186 14.77373,-3.13178 29.83741,5.59921 34.5607,20.03159 1.47756,4.51481 1.6668,12.07862 0.41609,16.63113 -4.11602,14.98206 -18.65621,24.31649 -33.91047,21.76964 z M 90.350969,375 c -0.516311,-0.67565 0.616595,-21.24998 1.202591,-21.83985 0.2288,-0.23032 0.98836,0.10572 1.819186,0.80481 2.091463,1.75985 6.224392,3.72817 9.400464,4.47701 7.85283,1.85149 15.75164,-0.31833 21.81852,-5.99359 1.57018,-1.46883 3.00757,-2.6706 3.19419,-2.6706 0.57525,0 -0.24043,25.06352 -0.82784,25.43731 -0.2825,0.17977 -8.53915,0.32992 -18.34811,0.33366 C 94.85856,375.55399 90.678311,375.42836 90.350969,375 Z m 112.437391,0 c -0.35873,-0.46177 -2.40162,-67.72985 -2.35676,-77.60311 0.0114,-2.50491 0.10105,-2.79165 0.79062,-2.52838 1.01213,0.3864 27.20428,16.6202 28.22222,17.49202 0.57466,0.49216 0.77778,1.33885 0.77778,3.24203 0,5.67033 2.05803,11.06465 5.98946,15.69898 l 2.34315,2.76209 1.1582,20.39185 c 0.90997,16.02127 1.04103,20.46629 0.61148,20.73916 -0.30071,0.19102 -8.77224,0.35037 -18.82565,0.35411 -14.10325,0.005 -18.3775,-0.12011 -18.7105,-0.54875 z m -99.89947,-21.3764 c -9.159104,-3.03076 -14.788166,-11.92613 -13.245615,-20.93149 1.085409,-6.33656 4.611014,-11.11668 10.2574,-13.90728 3.298275,-1.63009 3.514605,-1.67372 8.298495,-1.67372 4.42963,0 5.16815,0.12001 7.5212,1.22222 1.4351,0.67222 2.8351,1.21002 3.11111,1.19511 0.39869,-0.0216 32.28083,-35.78013 38.44621,-43.12075 l 1.49991,-1.78583 -1.49991,-3.19982 c -1.40519,-2.99775 -1.49991,-3.49452 -1.49991,-7.86649 0,-4.32365 0.10405,-4.8863 1.41554,-7.65481 1.95604,-4.12908 4.87275,-7.11091 8.90491,-9.10371 10.28454,-5.0829 22.92842,0.40165 26.21394,11.37084 1.13526,3.79023 0.94808,8.53004 -0.47758,12.09364 -0.64236,1.60564 -1.16792,3.10906 -1.16792,3.34094 0,0.49109 47.2578,29.9531 48.04552,29.9531 0.29093,0 1.50609,-0.91398 2.70036,-2.03108 4.07456,-3.81128 10.12791,-5.64739 15.49923,-4.70125 2.15937,0.38037 2.94672,0.36801 3.45748,-0.0542 0.52893,-0.43728 38.35006,-44.88712 40.40944,-47.4918 0.45956,-0.58124 0.32859,-1.15561 -0.75198,-3.29786 -4.83696,-9.58933 -0.765,-20.95872 9.19171,-25.66432 2.71872,-1.28488 3.4045,-1.41991 7.22601,-1.42286 5.02399,-0.004 7.67681,0.78796 11.27717,3.36613 7.18814,5.14731 9.81529,14.9592 6.11979,22.85628 -4.54738,9.71753 -15.69679,13.79441 -25.30024,9.25125 -1.32438,-0.62653 -2.55867,-0.96176 -2.75999,-0.7496 -1.69989,1.79138 -39.25537,46.29357 -39.43052,46.72406 -0.12587,0.30937 0.57954,1.43948 1.56756,2.51137 2.16762,2.35158 3.41864,4.70977 4.30613,8.11707 3.49738,13.42736 -9.33442,26.20168 -22.73537,22.63354 -9.17528,-2.44301 -15.51569,-11.74281 -14.08075,-20.65295 0.2396,-1.48778 0.32077,-2.87645 0.18037,-3.08595 -0.37304,-0.55667 -48.51549,-30.40096 -49.42342,-30.63838 -0.42251,-0.11049 -2.11217,0.46074 -3.7548,1.26941 -2.57671,1.26851 -3.55092,1.49498 -7.09837,1.65013 -3.377,0.1477 -4.63512,0.006 -7.04039,-0.79474 -1.61074,-0.53602 -3.0426,-1.159 -3.1819,-1.3844 -0.13931,-0.2254 -0.60144,-0.40982 -1.02697,-0.40982 -0.88818,0 -40.06274,44.07 -40.06274,45.06919 0,0.34956 0.48251,1.60199 1.07224,2.78319 4.56876,9.15095 0.55458,20.43981 -8.92816,25.10815 -2.63219,1.29582 -3.43801,1.47185 -7.22014,1.5772 -2.65449,0.074 -4.92658,-0.10288 -6.03505,-0.46968 z M 258.0163,326.37013 c 5.8344,-1.98798 9.12088,-8.88882 7.08241,-14.87141 -1.87038,-5.48927 -8.34927,-9.02043 -13.83531,-7.5406 -8.81297,2.37725 -11.88934,13.23605 -5.54675,19.57864 3.36918,3.36918 7.75918,4.38047 12.29965,2.83337 z m 64.83213,-78.54514 c 1.14286,-0.66977 2.67474,-2.04163 3.40417,-3.04857 5.90327,-8.14922 0.58219,-19.04989 -9.36371,-19.18238 -12.91481,-0.17204 -16.66611,17.35573 -4.88889,22.84308 2.92587,1.36325 7.96265,1.07904 10.84843,-0.61213 z m -173.83739,95.61945 c -0.23712,-0.30555 -1.67926,-7.05555 -3.20475,-15 -1.52549,-7.94444 -2.86951,-14.86204 -2.98673,-15.37245 -0.16489,-0.71799 1.91062,-3.33304 9.17139,-11.55555 5.16148,-5.84515 9.65669,-10.68869 9.98937,-10.76341 0.68724,-0.15435 0.66293,-0.25341 2.27012,9.24697 0.64098,3.78889 1.32698,7.05902 1.52445,7.26696 0.50689,0.53376 0.66626,-0.18507 2.25163,-10.15585 0.77735,-4.88889 1.56244,-9.05194 1.74464,-9.25122 0.1822,-0.19928 2.40823,-0.4209 4.94672,-0.49248 3.65838,-0.10316 5.2592,-0.37005 7.71988,-1.28708 l 3.10444,-1.15693 2.62853,1.64941 c 1.4457,0.90718 2.82711,1.9668 3.06981,2.35473 0.50208,0.8025 -8.73183,53.52507 -9.54635,54.50651 -0.67652,0.81515 -32.05088,0.82513 -32.68315,0.0104 z M 93.479173,311.66667 c 0.150356,-2.13889 1.689702,-29.58889 3.420769,-61 1.731067,-31.41111 3.245808,-57.76111 3.366088,-58.55556 l 0.21869,-1.44444 h 22.39436 c 20.94305,0 22.40943,0.0504 22.62696,0.77777 0.45563,1.52355 9.60507,55.50674 9.60507,56.67152 0,0.65258 -0.60717,2.14345 -1.34927,3.31305 -3.27024,5.15409 -4.19978,13.24416 -2.22864,19.39652 0.96336,3.00687 0.96504,3.06053 0.12501,4 -0.46829,0.52374 -3.41196,3.85225 -6.54149,7.39669 -3.12952,3.54445 -5.9993,6.44445 -6.37728,6.44445 -0.55439,0 -1.65805,-4.98293 -5.7095,-25.77778 -2.76224,-14.17778 -5.1287,-26.05641 -5.25878,-26.39695 -0.6672,-1.74659 -0.67551,0.78428 -0.0315,9.58571 1.06998,14.62196 1.5964,32.72135 1.28491,44.1777 -0.32109,11.80919 0.51759,9.59548 -6.77158,17.87352 -2.30528,2.61801 -4.40528,4.75785 -4.66667,4.75521 -0.26139,-0.003 -1.47526,-0.32701 -2.69748,-0.7208 -1.41659,-0.45641 -3.83347,-0.72128 -6.66667,-0.73058 -4.78954,-0.0157 -8.322378,0.88001 -12.02208,3.04818 -2.932094,1.71832 -3.032302,1.61468 -2.720965,-2.81421 z M 218.27623,284.24623 c -9.13697,-5.70279 -17.00054,-10.7008 -17.4746,-11.10671 -0.80461,-0.68893 -0.84295,-1.15787 -0.57639,-7.04988 0.15705,-3.47153 0.56997,-10.71186 0.91759,-16.08964 0.64969,-10.05076 0.78991,-14.74756 0.42953,-14.38718 -0.16099,0.16099 -3.79458,19.09725 -3.79458,19.77527 0,0.0921 -0.17255,0.16746 -0.38343,0.16746 -0.21089,0 -1.04227,-1.33826 -1.8475,-2.97392 -2.81225,-5.71251 -9.20042,-10.75641 -15.45024,-12.19904 -1.25332,-0.28931 -2.35616,-0.74374 -2.45075,-1.00985 -0.21767,-0.6124 7.43321,-47.49065 7.8648,-48.18899 0.47996,-0.77659 44.66776,-0.73875 44.91917,0.0385 0.14099,0.43587 5.22209,90.52998 5.68291,100.76489 0.0846,1.87918 -0.042,2.45386 -0.55719,2.52969 -0.36666,0.054 -8.14236,-4.56779 -17.27932,-10.27057 z"
         id="path847" />
      <path
         style="fill:#a44c4b;stroke-width:0.444444"
         d="M 91.002449,473.44444 C 90.622471,473.01667 69.991471,432.01296 45.155791,382.3251 L 0,291.98352 v -3.76997 -3.76998 L 45.157067,194.11068 C 69.993453,144.42758 90.624453,103.42778 91.003729,103 c 0.653595,-0.73718 7.002297,-0.77742 121.620711,-0.77097 66.51211,0.004 121.15756,0.15374 121.43432,0.33333 0.27677,0.17959 21.35171,42.02621 46.83319,92.99248 l 46.32999,92.66596 -46.10116,92.22293 c -25.35563,50.72262 -46.41157,92.57294 -46.79096,93.00071 -0.65377,0.73716 -7.00953,0.77778 -121.66315,0.77778 -114.653226,0 -121.009444,-0.0404 -121.664221,-0.77778 z M 373.16667,376.77703 417.44415,288.22074 373.1663,199.66592 328.88844,111.11111 H 212.6663 96.444146 l -44.277479,88.5563 -44.2774821,88.5563 44.2778501,88.55481 44.277854,88.55481 H 212.66704 328.88919 Z m -53.02341,2.73485 c -9.85435,-1.64528 -19.09011,-9.52213 -22.64362,-19.31195 -1.99886,-5.50681 -2.14665,-13.79617 -0.34209,-19.18855 3.29037,-9.83229 12.11034,-17.85251 21.91939,-19.93186 14.77373,-3.13178 29.83741,5.59921 34.5607,20.03159 1.47756,4.51481 1.6668,12.07862 0.41609,16.63113 -4.11602,14.98206 -18.65621,24.31649 -33.91047,21.76964 z M 90.350969,375 c -0.516311,-0.67565 0.616595,-21.24998 1.202591,-21.83985 0.2288,-0.23032 0.98836,0.10572 1.819186,0.80481 2.091463,1.75985 6.224392,3.72817 9.400464,4.47701 7.85283,1.85149 15.75164,-0.31833 21.81852,-5.99359 1.57018,-1.46883 3.00757,-2.6706 3.19419,-2.6706 0.57525,0 -0.24043,25.06352 -0.82784,25.43731 -0.2825,0.17977 -8.53915,0.32992 -18.34811,0.33366 C 94.85856,375.55399 90.678311,375.42836 90.350969,375 Z m 112.437391,0 c -0.35873,-0.46177 -2.40162,-67.72985 -2.35676,-77.60311 0.0114,-2.50491 0.10105,-2.79165 0.79062,-2.52838 1.01213,0.3864 27.20428,16.6202 28.22222,17.49202 0.57466,0.49216 0.77778,1.33885 0.77778,3.24203 0,5.67033 2.05803,11.06465 5.98946,15.69898 l 2.34315,2.76209 1.1582,20.39185 c 0.90997,16.02127 1.04103,20.46629 0.61148,20.73916 -0.30071,0.19102 -8.77224,0.35037 -18.82565,0.35411 -14.10325,0.005 -18.3775,-0.12011 -18.7105,-0.54875 z m -99.89947,-21.3764 c -9.159104,-3.03076 -14.788166,-11.92613 -13.245615,-20.93149 1.085409,-6.33656 4.611014,-11.11668 10.2574,-13.90728 3.298275,-1.63009 3.514605,-1.67372 8.298495,-1.67372 4.42963,0 5.16815,0.12001 7.5212,1.22222 1.4351,0.67222 2.8351,1.21002 3.11111,1.19511 0.39869,-0.0216 32.28083,-35.78013 38.44621,-43.12075 l 1.49991,-1.78583 -1.49991,-3.19982 c -1.40519,-2.99775 -1.49991,-3.49452 -1.49991,-7.86649 0,-4.32365 0.10405,-4.8863 1.41554,-7.65481 1.95604,-4.12908 4.87275,-7.11091 8.90491,-9.10371 10.28454,-5.0829 22.92842,0.40165 26.21394,11.37084 1.13526,3.79023 0.94808,8.53004 -0.47758,12.09364 -0.64236,1.60564 -1.16792,3.10906 -1.16792,3.34094 0,0.49109 47.2578,29.9531 48.04552,29.9531 0.29093,0 1.50609,-0.91398 2.70036,-2.03108 4.07456,-3.81128 10.12791,-5.64739 15.49923,-4.70125 2.15937,0.38037 2.94672,0.36801 3.45748,-0.0542 0.52893,-0.43728 38.35006,-44.88712 40.40944,-47.4918 0.45956,-0.58124 0.32859,-1.15561 -0.75198,-3.29786 -4.83696,-9.58933 -0.765,-20.95872 9.19171,-25.66432 2.71872,-1.28488 3.4045,-1.41991 7.22601,-1.42286 5.02399,-0.004 7.67681,0.78796 11.27717,3.36613 7.18814,5.14731 9.81529,14.9592 6.11979,22.85628 -4.54738,9.71753 -15.69679,13.79441 -25.30024,9.25125 -1.32438,-0.62653 -2.55867,-0.96176 -2.75999,-0.7496 -1.69989,1.79138 -39.25537,46.29357 -39.43052,46.72406 -0.12587,0.30937 0.57954,1.43948 1.56756,2.51137 2.16762,2.35158 3.41864,4.70977 4.30613,8.11707 3.49738,13.42736 -9.33442,26.20168 -22.73537,22.63354 -9.17528,-2.44301 -15.51569,-11.74281 -14.08075,-20.65295 0.2396,-1.48778 0.32077,-2.87645 0.18037,-3.08595 -0.37304,-0.55667 -48.51549,-30.40096 -49.42342,-30.63838 -0.42251,-0.11049 -2.11217,0.46074 -3.7548,1.26941 -2.57671,1.26851 -3.55092,1.49498 -7.09837,1.65013 -3.377,0.1477 -4.63512,0.006 -7.04039,-0.79474 -1.61074,-0.53602 -3.0426,-1.159 -3.1819,-1.3844 -0.13931,-0.2254 -0.60144,-0.40982 -1.02697,-0.40982 -0.88818,0 -40.06274,44.07 -40.06274,45.06919 0,0.34956 0.48251,1.60199 1.07224,2.78319 4.56876,9.15095 0.55458,20.43981 -8.92816,25.10815 -2.63219,1.29582 -3.43801,1.47185 -7.22014,1.5772 -2.65449,0.074 -4.92658,-0.10288 -6.03505,-0.46968 z M 258.0163,326.37013 c 5.8344,-1.98798 9.12088,-8.88882 7.08241,-14.87141 -1.87038,-5.48927 -8.34927,-9.02043 -13.83531,-7.5406 -8.81297,2.37725 -11.88934,13.23605 -5.54675,19.57864 3.36918,3.36918 7.75918,4.38047 12.29965,2.83337 z m -78.68297,-52.11582 c 3.64398,-1.60564 6.88889,-6.64513 6.88889,-10.69876 0,-2.82867 -1.38111,-5.88368 -3.7034,-8.19188 C 179.90868,252.76935 177.93462,252 173.88808,252 c -9.78417,0 -14.8338,11.7773 -8.34534,19.46393 3.11637,3.69185 9.02942,4.88829 13.79059,2.79038 z m 143.5151,-26.42932 c 1.14286,-0.66977 2.67474,-2.04163 3.40417,-3.04857 5.90327,-8.14922 0.58219,-19.04989 -9.36371,-19.18238 -12.91481,-0.17204 -16.66611,17.35573 -4.88889,22.84308 2.92587,1.36325 7.96265,1.07904 10.84843,-0.61213 z m -173.83739,95.61945 c -0.23712,-0.30555 -1.67926,-7.05555 -3.20475,-15 -1.52549,-7.94444 -2.86951,-14.86204 -2.98673,-15.37245 -0.16489,-0.71799 1.91062,-3.33304 9.17139,-11.55555 5.16148,-5.84515 9.65669,-10.68869 9.98937,-10.76341 0.68724,-0.15435 0.66293,-0.25341 2.27012,9.24697 0.64098,3.78889 1.32698,7.05902 1.52445,7.26696 0.50689,0.53376 0.66626,-0.18507 2.25163,-10.15585 0.77735,-4.88889 1.56244,-9.05194 1.74464,-9.25122 0.1822,-0.19928 2.40823,-0.4209 4.94672,-0.49248 3.65838,-0.10316 5.2592,-0.37005 7.71988,-1.28708 l 3.10444,-1.15693 2.62853,1.64941 c 1.4457,0.90718 2.82711,1.9668 3.06981,2.35473 0.50208,0.8025 -8.73183,53.52507 -9.54635,54.50651 -0.67652,0.81515 -32.05088,0.82513 -32.68315,0.0104 z M 93.479173,311.66667 c 0.150356,-2.13889 1.689702,-29.58889 3.420769,-61 1.731067,-31.41111 3.245808,-57.76111 3.366088,-58.55556 l 0.21869,-1.44444 h 22.39436 c 20.94305,0 22.40943,0.0504 22.62696,0.77777 0.45563,1.52355 9.60507,55.50674 9.60507,56.67152 0,0.65258 -0.60717,2.14345 -1.34927,3.31305 -3.27024,5.15409 -4.19978,13.24416 -2.22864,19.39652 0.96336,3.00687 0.96504,3.06053 0.12501,4 -0.46829,0.52374 -3.41196,3.85225 -6.54149,7.39669 -3.12952,3.54445 -5.9993,6.44445 -6.37728,6.44445 -0.55439,0 -1.65805,-4.98293 -5.7095,-25.77778 -2.76224,-14.17778 -5.1287,-26.05641 -5.25878,-26.39695 -0.6672,-1.74659 -0.67551,0.78428 -0.0315,9.58571 1.06998,14.62196 1.5964,32.72135 1.28491,44.1777 -0.32109,11.80919 0.51759,9.59548 -6.77158,17.87352 -2.30528,2.61801 -4.40528,4.75785 -4.66667,4.75521 -0.26139,-0.003 -1.47526,-0.32701 -2.69748,-0.7208 -1.41659,-0.45641 -3.83347,-0.72128 -6.66667,-0.73058 -4.78954,-0.0157 -8.322378,0.88001 -12.02208,3.04818 -2.932094,1.71832 -3.032302,1.61468 -2.720965,-2.81421 z M 218.27623,284.24623 c -9.13697,-5.70279 -17.00054,-10.7008 -17.4746,-11.10671 -0.80461,-0.68893 -0.84295,-1.15787 -0.57639,-7.04988 0.15705,-3.47153 0.56997,-10.71186 0.91759,-16.08964 0.64969,-10.05076 0.78991,-14.74756 0.42953,-14.38718 -0.16099,0.16099 -3.79458,19.09725 -3.79458,19.77527 0,0.0921 -0.17255,0.16746 -0.38343,0.16746 -0.21089,0 -1.04227,-1.33826 -1.8475,-2.97392 -2.81225,-5.71251 -9.20042,-10.75641 -15.45024,-12.19904 -1.25332,-0.28931 -2.35616,-0.74374 -2.45075,-1.00985 -0.21767,-0.6124 7.43321,-47.49065 7.8648,-48.18899 0.47996,-0.77659 44.66776,-0.73875 44.91917,0.0385 0.14099,0.43587 5.22209,90.52998 5.68291,100.76489 0.0846,1.87918 -0.042,2.45386 -0.55719,2.52969 -0.36666,0.054 -8.14236,-4.56779 -17.27932,-10.27057 z"
         id="path845" />
      <path
         style="fill:#636363;stroke-width:0.444444"
         d="M 91.002449,473.44444 C 90.622471,473.01667 69.991471,432.01296 45.155791,382.3251 L 0,291.98352 v -3.76997 -3.76998 L 45.157067,194.11068 C 69.993453,144.42758 90.624453,103.42778 91.003729,103 c 0.653595,-0.73718 7.002297,-0.77742 121.620711,-0.77097 66.51211,0.004 121.15756,0.15374 121.43432,0.33333 0.27677,0.17959 21.35171,42.02621 46.83319,92.99248 l 46.32999,92.66596 -46.10116,92.22293 c -25.35563,50.72262 -46.41157,92.57294 -46.79096,93.00071 -0.65377,0.73716 -7.00953,0.77778 -121.66315,0.77778 -114.653226,0 -121.009444,-0.0404 -121.664221,-0.77778 z M 373.16667,376.77703 417.44415,288.22074 373.1663,199.66592 328.88844,111.11111 H 212.6663 96.444146 l -44.277479,88.5563 -44.2774821,88.5563 44.2778501,88.55481 44.277854,88.55481 H 212.66704 328.88919 Z m -53.02341,2.73485 c -9.85435,-1.64528 -19.09011,-9.52213 -22.64362,-19.31195 -1.99886,-5.50681 -2.14665,-13.79617 -0.34209,-19.18855 3.29037,-9.83229 12.11034,-17.85251 21.91939,-19.93186 14.77373,-3.13178 29.83741,5.59921 34.5607,20.03159 1.47756,4.51481 1.6668,12.07862 0.41609,16.63113 -4.11602,14.98206 -18.65621,24.31649 -33.91047,21.76964 z M 90.350969,375 c -0.516311,-0.67565 0.616595,-21.24998 1.202591,-21.83985 0.2288,-0.23032 0.98836,0.10572 1.819186,0.80481 2.091463,1.75985 6.224392,3.72817 9.400464,4.47701 7.85283,1.85149 15.75164,-0.31833 21.81852,-5.99359 1.57018,-1.46883 3.00757,-2.6706 3.19419,-2.6706 0.57525,0 -0.24043,25.06352 -0.82784,25.43731 -0.2825,0.17977 -8.53915,0.32992 -18.34811,0.33366 C 94.85856,375.55399 90.678311,375.42836 90.350969,375 Z m 112.437391,0 c -0.35873,-0.46177 -2.40162,-67.72985 -2.35676,-77.60311 0.0114,-2.50491 0.10105,-2.79165 0.79062,-2.52838 1.01213,0.3864 27.20428,16.6202 28.22222,17.49202 0.57466,0.49216 0.77778,1.33885 0.77778,3.24203 0,5.67033 2.05803,11.06465 5.98946,15.69898 l 2.34315,2.76209 1.1582,20.39185 c 0.90997,16.02127 1.04103,20.46629 0.61148,20.73916 -0.30071,0.19102 -8.77224,0.35037 -18.82565,0.35411 -14.10325,0.005 -18.3775,-0.12011 -18.7105,-0.54875 z m -99.89947,-21.3764 c -9.159104,-3.03076 -14.788166,-11.92613 -13.245615,-20.93149 1.085409,-6.33656 4.611014,-11.11668 10.2574,-13.90728 3.298275,-1.63009 3.514605,-1.67372 8.298495,-1.67372 4.42963,0 5.16815,0.12001 7.5212,1.22222 1.4351,0.67222 2.8351,1.21002 3.11111,1.19511 0.39869,-0.0216 32.28083,-35.78013 38.44621,-43.12075 l 1.49991,-1.78583 -1.49991,-3.19982 c -1.40519,-2.99775 -1.49991,-3.49452 -1.49991,-7.86649 0,-4.32365 0.10405,-4.8863 1.41554,-7.65481 1.95604,-4.12908 4.87275,-7.11091 8.90491,-9.10371 10.28454,-5.0829 22.92842,0.40165 26.21394,11.37084 1.13526,3.79023 0.94808,8.53004 -0.47758,12.09364 -0.64236,1.60564 -1.16792,3.10906 -1.16792,3.34094 0,0.49109 47.2578,29.9531 48.04552,29.9531 0.29093,0 1.50609,-0.91398 2.70036,-2.03108 4.07456,-3.81128 10.12791,-5.64739 15.49923,-4.70125 2.15937,0.38037 2.94672,0.36801 3.45748,-0.0542 0.52893,-0.43728 38.35006,-44.88712 40.40944,-47.4918 0.45956,-0.58124 0.32859,-1.15561 -0.75198,-3.29786 -4.83696,-9.58933 -0.765,-20.95872 9.19171,-25.66432 2.71872,-1.28488 3.4045,-1.41991 7.22601,-1.42286 5.02399,-0.004 7.67681,0.78796 11.27717,3.36613 7.18814,5.14731 9.81529,14.9592 6.11979,22.85628 -4.54738,9.71753 -15.69679,13.79441 -25.30024,9.25125 -1.32438,-0.62653 -2.55867,-0.96176 -2.75999,-0.7496 -1.69989,1.79138 -39.25537,46.29357 -39.43052,46.72406 -0.12587,0.30937 0.57954,1.43948 1.56756,2.51137 2.16762,2.35158 3.41864,4.70977 4.30613,8.11707 3.49738,13.42736 -9.33442,26.20168 -22.73537,22.63354 -9.17528,-2.44301 -15.51569,-11.74281 -14.08075,-20.65295 0.2396,-1.48778 0.32077,-2.87645 0.18037,-3.08595 -0.37304,-0.55667 -48.51549,-30.40096 -49.42342,-30.63838 -0.42251,-0.11049 -2.11217,0.46074 -3.7548,1.26941 -2.57671,1.26851 -3.55092,1.49498 -7.09837,1.65013 -3.377,0.1477 -4.63512,0.006 -7.04039,-0.79474 -1.61074,-0.53602 -3.0426,-1.159 -3.1819,-1.3844 -0.13931,-0.2254 -0.60144,-0.40982 -1.02697,-0.40982 -0.88818,0 -40.06274,44.07 -40.06274,45.06919 0,0.34956 0.48251,1.60199 1.07224,2.78319 4.56876,9.15095 0.55458,20.43981 -8.92816,25.10815 -2.63219,1.29582 -3.43801,1.47185 -7.22014,1.5772 -2.65449,0.074 -4.92658,-0.10288 -6.03505,-0.46968 z M 259.11111,326.608 c 9.55424,-4.17564 9.66517,-17.78524 0.18278,-22.42454 -2.16024,-1.05691 -2.80139,-1.16361 -5.9104,-0.98363 -5.19218,0.30056 -8.6789,2.64471 -10.77578,7.24461 -1.14167,2.50445 -1.09601,7.36834 0.0939,10 2.85232,6.30853 9.96502,8.98012 16.40954,6.16356 z M 179.37306,274.67 c 7.57918,-3.24888 9.4731,-13.78201 3.53149,-19.64052 -2.35389,-2.32097 -4.41699,-3.18758 -8.0704,-3.38999 -4.89171,-0.27102 -8.64549,1.76908 -11.1762,6.07402 -1.06589,1.81316 -1.21304,2.52382 -1.20967,5.84204 0.003,2.75925 0.21475,4.1656 0.78609,5.21623 3.32407,6.11249 9.97138,8.54189 16.13869,5.89822 z m 143.34552,-26.3312 c 4.19677,-2.47397 6.33822,-6.199 6.32684,-11.00547 -0.009,-3.59741 -1.23768,-6.35577 -3.94373,-8.85012 -2.621,-2.41595 -4.73915,-3.26433 -8.24349,-3.30173 -2.32901,-0.0248 -3.42798,0.21759 -5.433,1.19855 -9.48238,4.63929 -9.28086,17.77633 0.34327,22.37764 3.0838,1.47438 8.06146,1.28396 10.95011,-0.41887 z m -173.70754,95.10564 c -0.23712,-0.30555 -1.67926,-7.05555 -3.20475,-15 -1.52549,-7.94444 -2.86951,-14.86204 -2.98673,-15.37245 -0.16489,-0.71799 1.91062,-3.33304 9.17139,-11.55555 5.16148,-5.84515 9.65669,-10.68869 9.98937,-10.76341 0.68724,-0.15435 0.66293,-0.25341 2.27012,9.24697 0.64098,3.78889 1.32698,7.05902 1.52445,7.26696 0.50689,0.53376 0.66626,-0.18507 2.25163,-10.15585 0.77735,-4.88889 1.56244,-9.05194 1.74464,-9.25122 0.1822,-0.19928 2.40823,-0.4209 4.94672,-0.49248 3.65838,-0.10316 5.2592,-0.37005 7.71988,-1.28708 l 3.10444,-1.15693 2.62853,1.64941 c 1.4457,0.90718 2.82711,1.9668 3.06981,2.35473 0.50208,0.8025 -8.73183,53.52507 -9.54635,54.50651 -0.67652,0.81515 -32.05088,0.82513 -32.68315,0.0104 z M 93.479173,311.66667 c 0.150356,-2.13889 1.689702,-29.58889 3.420769,-61 1.731067,-31.41111 3.245808,-57.76111 3.366088,-58.55556 l 0.21869,-1.44444 h 22.39436 c 20.94305,0 22.40943,0.0504 22.62696,0.77777 0.45563,1.52355 9.60507,55.50674 9.60507,56.67152 0,0.65258 -0.60717,2.14345 -1.34927,3.31305 -3.27024,5.15409 -4.19978,13.24416 -2.22864,19.39652 0.96336,3.00687 0.96504,3.06053 0.12501,4 -0.46829,0.52374 -3.41196,3.85225 -6.54149,7.39669 -3.12952,3.54445 -5.9993,6.44445 -6.37728,6.44445 -0.55439,0 -1.65805,-4.98293 -5.7095,-25.77778 -2.76224,-14.17778 -5.1287,-26.05641 -5.25878,-26.39695 -0.6672,-1.74659 -0.67551,0.78428 -0.0315,9.58571 1.06998,14.62196 1.5964,32.72135 1.28491,44.1777 -0.32109,11.80919 0.51759,9.59548 -6.77158,17.87352 -2.30528,2.61801 -4.40528,4.75785 -4.66667,4.75521 -0.26139,-0.003 -1.47526,-0.32701 -2.69748,-0.7208 -1.41659,-0.45641 -3.83347,-0.72128 -6.66667,-0.73058 -4.78954,-0.0157 -8.322378,0.88001 -12.02208,3.04818 -2.932094,1.71832 -3.032302,1.61468 -2.720965,-2.81421 z M 218.27623,284.24623 c -9.13697,-5.70279 -17.00054,-10.7008 -17.4746,-11.10671 -0.80461,-0.68893 -0.84295,-1.15787 -0.57639,-7.04988 0.15705,-3.47153 0.56997,-10.71186 0.91759,-16.08964 0.64969,-10.05076 0.78991,-14.74756 0.42953,-14.38718 -0.16099,0.16099 -3.79458,19.09725 -3.79458,19.77527 0,0.0921 -0.17255,0.16746 -0.38343,0.16746 -0.21089,0 -1.04227,-1.33826 -1.8475,-2.97392 -2.81225,-5.71251 -9.20042,-10.75641 -15.45024,-12.19904 -1.25332,-0.28931 -2.35616,-0.74374 -2.45075,-1.00985 -0.21767,-0.6124 7.43321,-47.49065 7.8648,-48.18899 0.47996,-0.77659 44.66776,-0.73875 44.91917,0.0385 0.14099,0.43587 5.22209,90.52998 5.68291,100.76489 0.0846,1.87918 -0.042,2.45386 -0.55719,2.52969 -0.36666,0.054 -8.14236,-4.56779 -17.27932,-10.27057 z"
         id="path843" />
      <path
         style="fill:#5400a1;stroke-width:0.444444"
         d="M 91.719018,473.43764 C 91.442253,473.25804 70.977773,432.63234 46.242387,383.15829 21.507005,333.68424 0.98344729,292.91995 0.63448213,292.57099 c -0.88957153,-0.88957 -0.88956982,-7.80797 2.14e-6,-8.69754 C 0.98345062,283.52448 21.583549,242.6102 46.41248,192.95282 L 91.555991,102.66667 H 212.66667 333.77735 l 46.22244,92.44401 c 25.42233,50.84422 46.22243,92.74441 46.22243,93.11154 0,0.36713 -20.8001,42.26733 -46.22243,93.11154 l -46.22244,92.44402 -120.77756,-0.007 c -66.42767,-0.004 -121.004008,-0.15373 -121.280772,-0.33333 z M 373.55555,376.74543 418,287.9353 373.55621,199.32393 c -33.348,-66.48873 -44.66588,-88.67106 -45.33334,-88.85047 -1.17144,-0.31487 -229.953839,-0.31138 -231.125884,0.004 -0.686191,0.18437 -11.557728,21.55291 -45.277448,88.99504 L 7.4451071,288.22444 51.548462,376.44555 c 24.256844,48.52161 44.306493,88.47147 44.554782,88.77752 0.35984,0.44351 24.042296,0.53368 116.729646,0.44444 l 116.27822,-0.11196 z m -51.33333,2.52684 c -3.85327,-0.5626 -6.44514,-1.33864 -9.75281,-2.9201 -7.20522,-3.44497 -13.53995,-11.38497 -15.39509,-19.29632 -1.07473,-4.58329 -0.69593,-12.2502 0.81647,-16.52554 3.06527,-8.665 10.69974,-15.88192 19.66476,-18.58921 4.26575,-1.28819 12.30052,-1.08645 16.88889,0.42405 4.55627,1.49992 8.20783,3.91294 12.04964,7.9626 5.42823,5.72192 7.83928,11.76355 7.85063,19.67225 0.0122,8.52787 -2.48484,14.57005 -8.56117,20.71541 -3.04552,3.08013 -4.52053,4.18894 -7.56179,5.6845 -5.02062,2.46892 -11.18415,3.57544 -15.99953,2.87236 z M 90.806978,374.39125 c -0.278996,-0.72705 0.683551,-20.23259 1.015431,-20.57718 0.09848,-0.10225 1.073582,0.45648 2.16688,1.24162 9.330841,6.70091 21.960411,5.87814 30.812821,-2.00734 l 2.77853,-2.47504 -0.27166,11.71335 c -0.14942,6.44233 -0.34878,11.96334 -0.44304,12.26889 -0.13337,0.43235 -4.12021,0.55556 -17.97705,0.55556 -16.002032,0 -17.833659,-0.0729 -18.081912,-0.71986 z m 112.367282,-0.28014 c -0.19762,-0.55 -0.70222,-14.5 -1.12133,-31 -0.41911,-16.5 -0.8849,-33.97091 -1.03508,-38.82424 -0.2369,-7.65622 -0.18602,-8.80338 0.38443,-8.66667 0.3616,0.0867 6.89403,4.03233 14.51648,8.76815 l 13.85902,8.61056 v 2.96272 c 0,5.6577 2.18051,11.15417 6.28634,15.84613 1.91446,2.18776 2.15973,2.70161 2.1725,4.55143 0.008,1.14689 0.48207,10.18525 1.05366,20.08525 0.76133,13.18602 0.90606,18.08733 0.54116,18.32653 -0.27396,0.17959 -8.55306,0.32959 -18.398,0.33334 l -17.89988,0.007 z M 102.66667,352.94407 c -3.37547,-1.08524 -4.286995,-1.63376 -7.037812,-4.23511 -7.623498,-7.20928 -7.629725,-19.02073 -0.01387,-26.28504 3.4136,-3.25602 6.652132,-4.67868 11.332132,-4.97809 2.90024,-0.18555 4.23407,-0.0428 6.75521,0.72298 1.72779,0.5248 3.26339,1.15151 3.41244,1.39269 1.04265,1.68704 2.33887,0.40015 22.15063,-21.99115 10.91515,-12.3363 19.84571,-22.72487 19.84571,-23.0857 0,-0.36084 -0.39215,-1.32071 -0.87145,-2.13306 -3.34947,-5.67693 -2.64851,-14.61071 1.56045,-19.88807 8.60971,-10.79518 25.08444,-8.97164 31.17846,3.45105 1.12952,2.30254 1.24116,2.96919 1.24235,7.41876 8.8e-4,4.15515 -0.15989,5.28072 -1.07272,7.49964 -0.72446,1.76102 -0.94084,2.82188 -0.66485,3.25942 0.35287,0.55941 44.16996,28.05399 47.33651,29.70296 1.09272,0.56904 1.26661,0.4934 3.3158,-1.44233 4.22236,-3.98857 10.18806,-5.85295 15.89506,-4.96748 2.78371,0.4319 3.15795,0.39884 3.87834,-0.34264 1.36801,-1.40808 39.6001,-46.5467 40.2594,-47.53216 0.55975,-0.83667 0.47377,-1.25233 -0.82745,-4 -1.36602,-2.88449 -1.45212,-3.35617 -1.45212,-7.95518 0,-4.57603 0.0908,-5.08061 1.41917,-7.88478 3.51448,-7.41912 11.37285,-11.55746 19.3493,-10.18965 7.89469,1.35379 13.73326,7.20841 15.09231,15.1338 1.34004,7.81445 -2.84205,15.86602 -10.083,19.41237 -2.48035,1.21478 -3.02379,1.30603 -7.77778,1.30603 -4.68326,0 -5.34094,-0.10618 -7.85658,-1.26842 -1.51001,-0.69763 -2.95225,-1.14062 -3.20497,-0.98443 -0.86216,0.53284 -40.04956,46.92049 -40.04956,47.40821 0,0.26731 0.79789,1.39248 1.7731,2.50038 6.56342,7.45643 6.29074,18.33839 -0.63301,25.26214 -7.17636,7.17637 -18.65167,7.17502 -25.83406,-0.003 -4.02322,-4.0208 -6.09156,-10.33359 -5.11556,-15.61325 0.42468,-2.29727 0.38938,-2.6907 -0.29891,-3.33162 -0.42925,-0.39971 -11.83043,-7.57548 -25.33595,-15.94617 l -24.5555,-15.21944 -1.89458,1.1103 c -4.95053,2.9012 -11.9602,3.33941 -16.93702,1.0588 -1.43509,-0.65762 -2.93509,-1.18348 -3.33333,-1.16857 -0.59191,0.0222 -33.06276,36.2766 -38.80493,43.32658 l -1.63643,2.00912 1.33333,2.84924 c 4.84846,10.36092 0.0225,21.94443 -10.63888,25.53599 -3.37193,1.13592 -7.82537,1.16969 -11.19938,0.0849 z m 156.49484,-26.1695 c 4.54598,-2.04327 7.28854,-6.38693 7.22394,-11.44124 -0.0474,-3.70437 -0.85779,-5.77132 -3.30304,-8.4241 -6.01217,-6.52243 -16.89607,-4.66772 -20.46543,3.48748 -1.36583,3.12061 -1.35514,7.28418 0.0261,10.16373 1.29921,2.70857 4.86317,5.91807 7.51704,6.76942 2.60276,0.83495 6.4342,0.59859 9.00141,-0.55529 z m -80.386,-51.65921 c 2.56717,-0.9605 5.49628,-3.63777 6.7902,-6.20639 0.98617,-1.95769 1.34425,-6.37637 0.70739,-8.72936 -0.63609,-2.3502 -2.68868,-5.16451 -4.97421,-6.82013 -5.27416,-3.82059 -13.32614,-2.31524 -17.11705,3.20009 -6.86792,9.992 3.21543,22.81294 14.59367,18.55579 z m 143.29672,-26.31093 c 4.58714,-2.1467 7.52744,-7.17129 7.13826,-12.19835 -0.85467,-11.03982 -14.11587,-15.6593 -21.5627,-7.51128 -2.44273,2.67274 -3.45846,5.35751 -3.36913,8.9052 0.2208,8.76852 9.76297,14.56261 17.79357,10.80443 z M 149.47412,343.00558 C 148.7843,341.93927 143.22304,312.678 143.58135,312 c 0.55166,-1.04389 18.28362,-20.94985 18.48365,-20.74981 0.0981,0.0981 0.78084,3.75699 1.51712,8.13079 1.40474,8.34479 1.95821,10.36757 2.64803,9.67776 0.22539,-0.22539 1.16585,-5.00582 2.08991,-10.62316 l 1.6801,-10.21336 4.66659,-0.28176 c 3.02036,-0.18236 5.74074,-0.64079 7.71152,-1.2995 l 3.04493,-1.01775 1.91964,1.04865 c 1.0558,0.57675 2.36317,1.3832 2.90527,1.79211 l 0.98564,0.74347 -4.8391,27.06295 -4.83909,27.06294 -15.85921,0.1167 c -12.38684,0.0911 -15.9387,-0.006 -16.22223,-0.44445 z M 93.954906,312.11111 c 0.147036,-1.65 1.670565,-28.5 3.385623,-59.66667 1.715053,-31.16666 3.229671,-57.71852 3.365821,-59.00412 l 0.24753,-2.33747 22.04622,0.11524 22.04622,0.11524 4.79062,27.77778 c 2.63484,15.27778 4.79942,28.21242 4.81017,28.74365 0.0108,0.53123 -0.78703,2.46124 -1.77287,4.28892 -3.53303,6.54999 -3.93743,14.06285 -1.12016,20.80987 0.22268,0.5333 -1.46795,2.73362 -6.2433,8.1255 -3.60177,4.06679 -6.68575,7.23769 -6.85329,7.04645 -0.16753,-0.19125 -2.64373,-12.44772 -5.50265,-27.23661 -5.32475,-27.54433 -5.81397,-29.77778 -6.52264,-29.77778 -0.53777,0 -0.52465,0.55901 0.24,10.22664 1.20445,15.22823 1.57028,25.0282 1.57126,42.09214 l 8.9e-4,16.98545 -5.38646,6.05249 c -4.49107,5.0464 -5.54385,6.0076 -6.33333,5.78237 -0.52078,-0.14857 -2.24688,-0.58663 -3.83576,-0.97347 -5.10609,-1.24317 -11.56855,-0.19541 -16.788085,2.72184 -1.0948,0.6119 -2.085653,1.11254 -2.201893,1.11254 -0.116244,0 -0.09105,-1.35 0.05599,-3 z M 218,283.44651 l -17.33333,-10.79876 0.13073,-5.5461 c 0.0719,-3.05035 0.5363,-11.75724 1.03198,-19.34863 0.49568,-7.5914 0.83685,-14.5914 0.75815,-15.55556 -0.12921,-1.58304 -0.1935,-1.66533 -0.66309,-0.84866 -0.286,0.4974 -1.36187,5.6974 -2.39082,11.55555 -1.02894,5.85816 -2.02926,10.82552 -2.22291,11.03856 -0.19365,0.21305 -0.85701,-0.60905 -1.47414,-1.82688 -2.61209,-5.15472 -8.55877,-10.03674 -14.37629,-11.80243 -2.61702,-0.7943 -3.23053,-1.15061 -3.2339,-1.87816 -0.003,-0.68553 5.93754,-37.81714 7.34036,-45.87988 l 0.25132,-1.44445 h 21.99381 c 17.20914,0 22.03035,0.12086 22.16181,0.55556 0.29271,0.96793 5.66667,99.59937 5.5097,101.12264 l -0.15005,1.45596 z"
         id="path841" />
      <path
         style="fill:#030303;stroke-width:0.444444"
         d="M 91.719018,473.43764 C 91.442253,473.25804 70.977773,432.63234 46.242387,383.15829 21.507005,333.68424 0.98344729,292.91995 0.63448213,292.57099 c -0.88957153,-0.88957 -0.88956982,-7.80797 2.14e-6,-8.69754 C 0.98345062,283.52448 21.583549,242.6102 46.41248,192.95282 L 91.555991,102.66667 H 212.66667 333.77735 l 46.22244,92.44401 c 25.42233,50.84422 46.22243,92.74441 46.22243,93.11154 0,0.36713 -20.8001,42.26733 -46.22243,93.11154 l -46.22244,92.44402 -120.77756,-0.007 c -66.42767,-0.004 -121.004008,-0.15373 -121.280772,-0.33333 z M 373.55555,376.74543 418,287.9353 373.55621,199.32393 c -33.348,-66.48873 -44.66588,-88.67106 -45.33334,-88.85047 -1.17144,-0.31487 -229.953839,-0.31138 -231.125884,0.004 -0.686191,0.18437 -11.557728,21.55291 -45.277448,88.99504 L 7.4451071,288.22444 51.548462,376.44555 c 24.256844,48.52161 44.306493,88.47147 44.554782,88.77752 0.35984,0.44351 24.042296,0.53368 116.729646,0.44444 l 116.27822,-0.11196 z m -51.33333,2.52684 c -3.85327,-0.5626 -6.44514,-1.33864 -9.75281,-2.9201 -7.20522,-3.44497 -13.53995,-11.38497 -15.39509,-19.29632 -1.07473,-4.58329 -0.69593,-12.2502 0.81647,-16.52554 3.06527,-8.665 10.69974,-15.88192 19.66476,-18.58921 4.26575,-1.28819 12.30052,-1.08645 16.88889,0.42405 4.55627,1.49992 8.20783,3.91294 12.04964,7.9626 5.42823,5.72192 7.83928,11.76355 7.85063,19.67225 0.0122,8.52787 -2.48484,14.57005 -8.56117,20.71541 -3.04552,3.08013 -4.52053,4.18894 -7.56179,5.6845 -5.02062,2.46892 -11.18415,3.57544 -15.99953,2.87236 z M 90.806978,374.39125 c -0.278996,-0.72705 0.683551,-20.23259 1.015431,-20.57718 0.09848,-0.10225 1.073582,0.45648 2.16688,1.24162 9.330841,6.70091 21.960411,5.87814 30.812821,-2.00734 l 2.77853,-2.47504 -0.27166,11.71335 c -0.14942,6.44233 -0.34878,11.96334 -0.44304,12.26889 -0.13337,0.43235 -4.12021,0.55556 -17.97705,0.55556 -16.002032,0 -17.833659,-0.0729 -18.081912,-0.71986 z m 112.367282,-0.28014 c -0.19762,-0.55 -0.70222,-14.5 -1.12133,-31 -0.41911,-16.5 -0.8849,-33.97091 -1.03508,-38.82424 -0.2369,-7.65622 -0.18602,-8.80338 0.38443,-8.66667 0.3616,0.0867 6.89403,4.03233 14.51648,8.76815 l 13.85902,8.61056 v 2.96272 c 0,5.6577 2.18051,11.15417 6.28634,15.84613 1.91446,2.18776 2.15973,2.70161 2.1725,4.55143 0.008,1.14689 0.48207,10.18525 1.05366,20.08525 0.76133,13.18602 0.90606,18.08733 0.54116,18.32653 -0.27396,0.17959 -8.55306,0.32959 -18.398,0.33334 l -17.89988,0.007 z M 102.66667,352.94407 c -3.37547,-1.08524 -4.286995,-1.63376 -7.037812,-4.23511 -7.623498,-7.20928 -7.629725,-19.02073 -0.01387,-26.28504 3.4136,-3.25602 6.652132,-4.67868 11.332132,-4.97809 2.90024,-0.18555 4.23407,-0.0428 6.75521,0.72298 1.72779,0.5248 3.26339,1.15151 3.41244,1.39269 1.04265,1.68704 2.33887,0.40015 22.15063,-21.99115 10.91515,-12.3363 19.84571,-22.72487 19.84571,-23.0857 0,-0.36084 -0.39215,-1.32071 -0.87145,-2.13306 -3.34947,-5.67693 -2.64851,-14.61071 1.56045,-19.88807 8.60971,-10.79518 25.08444,-8.97164 31.17846,3.45105 1.12952,2.30254 1.24116,2.96919 1.24235,7.41876 8.8e-4,4.15515 -0.15989,5.28072 -1.07272,7.49964 -0.72446,1.76102 -0.94084,2.82188 -0.66485,3.25942 0.35287,0.55941 44.16996,28.05399 47.33651,29.70296 1.09272,0.56904 1.26661,0.4934 3.3158,-1.44233 4.22236,-3.98857 10.18806,-5.85295 15.89506,-4.96748 2.78371,0.4319 3.15795,0.39884 3.87834,-0.34264 1.36801,-1.40808 39.6001,-46.5467 40.2594,-47.53216 0.55975,-0.83667 0.47377,-1.25233 -0.82745,-4 -1.36602,-2.88449 -1.45212,-3.35617 -1.45212,-7.95518 0,-4.57603 0.0908,-5.08061 1.41917,-7.88478 3.51448,-7.41912 11.37285,-11.55746 19.3493,-10.18965 7.89469,1.35379 13.73326,7.20841 15.09231,15.1338 1.34004,7.81445 -2.84205,15.86602 -10.083,19.41237 -2.48035,1.21478 -3.02379,1.30603 -7.77778,1.30603 -4.68326,0 -5.34094,-0.10618 -7.85658,-1.26842 -1.51001,-0.69763 -2.95225,-1.14062 -3.20497,-0.98443 -0.86216,0.53284 -40.04956,46.92049 -40.04956,47.40821 0,0.26731 0.79789,1.39248 1.7731,2.50038 6.56342,7.45643 6.29074,18.33839 -0.63301,25.26214 -7.17636,7.17637 -18.65167,7.17502 -25.83406,-0.003 -4.02322,-4.0208 -6.09156,-10.33359 -5.11556,-15.61325 0.42468,-2.29727 0.38938,-2.6907 -0.29891,-3.33162 -0.42925,-0.39971 -11.83043,-7.57548 -25.33595,-15.94617 l -24.5555,-15.21944 -1.89458,1.1103 c -4.95053,2.9012 -11.9602,3.33941 -16.93702,1.0588 -1.43509,-0.65762 -2.93509,-1.18348 -3.33333,-1.16857 -0.59191,0.0222 -33.06276,36.2766 -38.80493,43.32658 l -1.63643,2.00912 1.33333,2.84924 c 4.84846,10.36092 0.0225,21.94443 -10.63888,25.53599 -3.37193,1.13592 -7.82537,1.16969 -11.19938,0.0849 z m 10.46702,-6.24998 c 9.54421,-4.17745 9.60979,-18.05806 0.10528,-22.28106 -2.84637,-1.26469 -7.22922,-1.36751 -9.82453,-0.23048 -2.56453,1.12356 -5.414316,3.99948 -6.527671,6.58755 -0.810218,1.8834 -0.954547,2.87786 -0.788676,5.43425 0.111658,1.72094 0.539009,3.77628 0.949662,4.56743 3.152235,6.07292 9.990125,8.59041 16.085935,5.92231 z m 146.02782,-19.91952 c 4.54598,-2.04327 7.28854,-6.38693 7.22394,-11.44124 -0.0474,-3.70437 -0.85779,-5.77132 -3.30304,-8.4241 -6.01217,-6.52243 -16.89607,-4.66772 -20.46543,3.48748 -1.36583,3.12061 -1.35514,7.28418 0.0261,10.16373 1.29921,2.70857 4.86317,5.91807 7.51704,6.76942 2.60276,0.83495 6.4342,0.59859 9.00141,-0.55529 z m -80.386,-51.65921 c 2.56717,-0.9605 5.49628,-3.63777 6.7902,-6.20639 0.98617,-1.95769 1.34425,-6.37637 0.70739,-8.72936 -0.63609,-2.3502 -2.68868,-5.16451 -4.97421,-6.82013 -5.27416,-3.82059 -13.32614,-2.31524 -17.11705,3.20009 -6.86792,9.992 3.21543,22.81294 14.59367,18.55579 z m 143.29672,-26.31093 c 4.58714,-2.1467 7.52744,-7.17129 7.13826,-12.19835 -0.85467,-11.03982 -14.11587,-15.6593 -21.5627,-7.51128 -2.44273,2.67274 -3.45846,5.35751 -3.36913,8.9052 0.2208,8.76852 9.76297,14.56261 17.79357,10.80443 z M 149.47412,343.00558 C 148.7843,341.93927 143.22304,312.678 143.58135,312 c 0.55166,-1.04389 18.28362,-20.94985 18.48365,-20.74981 0.0981,0.0981 0.78084,3.75699 1.51712,8.13079 1.40474,8.34479 1.95821,10.36757 2.64803,9.67776 0.22539,-0.22539 1.16585,-5.00582 2.08991,-10.62316 l 1.6801,-10.21336 4.66659,-0.28176 c 3.02036,-0.18236 5.74074,-0.64079 7.71152,-1.2995 l 3.04493,-1.01775 1.91964,1.04865 c 1.0558,0.57675 2.36317,1.3832 2.90527,1.79211 l 0.98564,0.74347 -4.8391,27.06295 -4.83909,27.06294 -15.85921,0.1167 c -12.38684,0.0911 -15.9387,-0.006 -16.22223,-0.44445 z M 93.954906,312.11111 c 0.147036,-1.65 1.670565,-28.5 3.385623,-59.66667 1.715053,-31.16666 3.229671,-57.71852 3.365821,-59.00412 l 0.24753,-2.33747 22.04622,0.11524 22.04622,0.11524 4.79062,27.77778 c 2.63484,15.27778 4.79942,28.21242 4.81017,28.74365 0.0108,0.53123 -0.78703,2.46124 -1.77287,4.28892 -3.53303,6.54999 -3.93743,14.06285 -1.12016,20.80987 0.22268,0.5333 -1.46795,2.73362 -6.2433,8.1255 -3.60177,4.06679 -6.68575,7.23769 -6.85329,7.04645 -0.16753,-0.19125 -2.64373,-12.44772 -5.50265,-27.23661 -5.32475,-27.54433 -5.81397,-29.77778 -6.52264,-29.77778 -0.53777,0 -0.52465,0.55901 0.24,10.22664 1.20445,15.22823 1.57028,25.0282 1.57126,42.09214 l 8.9e-4,16.98545 -5.38646,6.05249 c -4.49107,5.0464 -5.54385,6.0076 -6.33333,5.78237 -0.52078,-0.14857 -2.24688,-0.58663 -3.83576,-0.97347 -5.10609,-1.24317 -11.56855,-0.19541 -16.788085,2.72184 -1.0948,0.6119 -2.085653,1.11254 -2.201893,1.11254 -0.116244,0 -0.09105,-1.35 0.05599,-3 z M 218,283.44651 l -17.33333,-10.79876 0.13073,-5.5461 c 0.0719,-3.05035 0.5363,-11.75724 1.03198,-19.34863 0.49568,-7.5914 0.83685,-14.5914 0.75815,-15.55556 -0.12921,-1.58304 -0.1935,-1.66533 -0.66309,-0.84866 -0.286,0.4974 -1.36187,5.6974 -2.39082,11.55555 -1.02894,5.85816 -2.02926,10.82552 -2.22291,11.03856 -0.19365,0.21305 -0.85701,-0.60905 -1.47414,-1.82688 -2.61209,-5.15472 -8.55877,-10.03674 -14.37629,-11.80243 -2.61702,-0.7943 -3.23053,-1.15061 -3.2339,-1.87816 -0.003,-0.68553 5.93754,-37.81714 7.34036,-45.87988 l 0.25132,-1.44445 h 21.99381 c 17.20914,0 22.03035,0.12086 22.16181,0.55556 0.29271,0.96793 5.66667,99.59937 5.5097,101.12264 l -0.15005,1.45596 z"
         id="path839" />
    </g>
  </g>
</svg>
