<?xml version="1.0" encoding="UTF-8" standalone="no"?>
<svg
   viewBox="0 0 28.405886 25"
   version="1.1"
   id="svg1"
   sodipodi:docname="bluesky-brands-solid.svg"
   inkscape:export-filename="bluesky-brands-solid32.svg"
   inkscape:export-xdpi="6"
   inkscape:export-ydpi="6"
   width="28.405886"
   height="25"
   xmlns:inkscape="http://www.inkscape.org/namespaces/inkscape"
   xmlns:sodipodi="http://sodipodi.sourceforge.net/DTD/sodipodi-0.dtd"
   xmlns="http://www.w3.org/2000/svg"
   xmlns:svg="http://www.w3.org/2000/svg">
  <defs
     id="defs1" />
  <sodipodi:namedview
     id="namedview1"
     pagecolor="#ffffff"
     bordercolor="#000000"
     borderopacity="0.25"
     inkscape:showpageshadow="2"
     inkscape:pageopacity="0.0"
     inkscape:pagecheckerboard="0"
     inkscape:deskcolor="#d1d1d1"
     showgrid="false" />
  <!--!Font Awesome Free 6.7.2 by @fontawesome - https://fontawesome.com License - https://fontawesome.com/license/free Copyright 2025 Fonticons, Inc.-->
  <path
     d="m 6.1555387,1.6870958 c 3.259143,2.4387767 6.7638383,7.3944594 8.0474043,10.0564642 1.283566,-2.6564239 4.788261,-7.6121067 8.047404,-10.0564642 2.349485,-1.76350848 6.155539,-3.1252049 6.155539,1.2165983 0,0.8650116 -0.496684,7.2828449 -0.786882,8.3264399 -1.015692,3.61631 -4.710131,4.54271 -7.997178,3.979056 5.742565,0.976628 7.204715,4.213447 4.046025,7.450267 -5.993697,6.149959 -8.611057,-1.54028 -9.280744,-3.510275 v 0 c -0.09487,-0.273456 -0.145099,-0.435296 -0.184164,-0.435296 -0.03907,0 -0.08929,0.167421 -0.184164,0.435296 v 0 C 13.349092,21.119177 10.726152,28.809416 4.7380348,22.659457 1.5849257,19.422637 3.0414946,16.185818 8.7840595,15.20919 5.4970133,15.772844 1.8025739,14.846444 0.79246279,11.224554 0.49668446,10.180958 0,3.7631258 0,2.8981133 0,-1.44369 3.8060539,-0.08199355 6.1555387,1.6815149 Z"
     id="path1"
     style="stroke-width:0.0558073"
     inkscape:export-filename="bluesky-brands-solid32.svg"
     inkscape:export-xdpi="96"
     inkscape:export-ydpi="96" />
</svg>
