<?xml version="1.0" encoding="UTF-8" standalone="no"?>
<svg
   viewBox="0 0 32 28.163177"
   version="1.1"
   id="svg1"
   sodipodi:docname="bluesky-brands-solid.svg"
   inkscape:export-filename="bluesky-brands-solid32.svg"
   inkscape:export-xdpi="6"
   inkscape:export-ydpi="6"
   width="32"
   height="28.163177"
   xmlns:inkscape="http://www.inkscape.org/namespaces/inkscape"
   xmlns:sodipodi="http://sodipodi.sourceforge.net/DTD/sodipodi-0.dtd"
   xmlns="http://www.w3.org/2000/svg"
   xmlns:svg="http://www.w3.org/2000/svg">
  <defs
     id="defs1" />
  <sodipodi:namedview
     id="namedview1"
     pagecolor="#ffffff"
     bordercolor="#000000"
     borderopacity="0.25"
     inkscape:showpageshadow="2"
     inkscape:pageopacity="0.0"
     inkscape:pagecheckerboard="0"
     inkscape:deskcolor="#d1d1d1"
     showgrid="false" />
  <!--!Font Awesome Free 6.7.2 by @fontawesome - https://fontawesome.com License - https://fontawesome.com/license/free Copyright 2025 Fonticons, Inc.-->
  <path
     d="M 6.9343811,1.9005591 C 10.605894,4.6479071 14.554028,10.230618 16,13.229439 17.445972,10.236905 21.394106,4.6541941 25.065619,1.9005591 27.712377,-0.08608095 32,-1.6200689 32,3.2710901 c 0,0.974459 -0.559528,8.2043219 -0.886444,9.3799599 -1.144204,4.073871 -5.30609,5.117486 -9.009037,4.482515 6.469155,1.100197 8.116306,4.746562 4.557956,8.392927 -6.752062,6.928095 -9.700589,-1.735167 -10.455009,-3.95442 v 0 C 16.100589,21.264017 16.044008,21.081699 16,21.081699 c -0.04401,0 -0.100589,0.188605 -0.207466,0.490373 v 0 C 15.038114,23.791325 12.083301,32.454587 5.3375246,25.526492 1.7854617,21.880127 3.4263261,18.233762 9.895481,17.133565 6.1925344,17.768536 2.0306483,16.724921 0.8927308,12.644764 0.5595285,11.469125 0,4.2392631 0,3.2648031 0,-1.6263559 4.2876228,-0.09236795 6.9343811,1.8942721 Z"
     id="path1"
     style="stroke-width:0.0628684" />
</svg>
