<?xml version="1.0" encoding="UTF-8" standalone="no"?>
<svg
   viewBox="0 0 28 24.5"
   version="1.1"
   id="svg1"
   sodipodi:docname="chart-line-solid.svg"
   width="28"
   height="24.5"
   inkscape:export-filename="chart-line-solid32.svg"
   inkscape:export-xdpi="96"
   inkscape:export-ydpi="96"
   xmlns:inkscape="http://www.inkscape.org/namespaces/inkscape"
   xmlns:sodipodi="http://sodipodi.sourceforge.net/DTD/sodipodi-0.dtd"
   xmlns="http://www.w3.org/2000/svg"
   xmlns:svg="http://www.w3.org/2000/svg">
  <defs
     id="defs1" />
  <sodipodi:namedview
     id="namedview1"
     pagecolor="#ffffff"
     bordercolor="#000000"
     borderopacity="0.25"
     inkscape:showpageshadow="2"
     inkscape:pageopacity="0.0"
     inkscape:pagecheckerboard="0"
     inkscape:deskcolor="#d1d1d1"
     showgrid="false" />
  <!--!Font Awesome Free 6.5.2 by @fontawesome - https://fontawesome.com License - https://fontawesome.com/license/free Copyright 2024 Fonticons, Inc.-->
  <path
     d="M 3.5,1.75 C 3.5,0.78203125 2.7179688,0 1.75,0 0.78203125,0 0,0.78203125 0,1.75 V 20.125 C 0,22.542187 1.9578125,24.5 4.375,24.5 H 26.25 C 27.217969,24.5 28,23.717969 28,22.75 28,21.782031 27.217969,21 26.25,21 H 4.375 C 3.89375,21 3.5,20.60625 3.5,20.125 Z m 22.235938,4.7359375 c 0.683593,-0.6835938 0.683593,-1.79375 0,-2.4773438 C 25.052344,3.325 23.942187,3.325 23.258594,4.0085937 L 17.5,9.7726562 14.360938,6.6335937 C 13.677344,5.95 12.567188,5.95 11.883594,6.6335937 L 5.7585938,12.758594 c -0.6835938,0.683594 -0.6835938,1.79375 0,2.477344 0.6835937,0.683593 1.79375,0.683593 2.4773437,0 L 13.125,10.352344 l 3.139062,3.139062 c 0.683594,0.683594 1.79375,0.683594 2.477344,0 l 7,-6.9999997 z"
     id="path1"
     style="stroke-width:0.0546875"
     inkscape:export-filename="chart-line-solid32.svg"
     inkscape:export-xdpi="96"
     inkscape:export-ydpi="96" />
</svg>
