<?xml version="1.0" encoding="UTF-8" standalone="no"?>
<svg
   viewBox="0 0 22 19.25"
   version="1.1"
   id="svg1"
   sodipodi:docname="chart-line-solid.svg"
   width="22"
   height="19.25"
   inkscape:export-filename="chart-line-solid32.svg"
   inkscape:export-xdpi="96"
   inkscape:export-ydpi="96"
   xmlns:inkscape="http://www.inkscape.org/namespaces/inkscape"
   xmlns:sodipodi="http://sodipodi.sourceforge.net/DTD/sodipodi-0.dtd"
   xmlns="http://www.w3.org/2000/svg"
   xmlns:svg="http://www.w3.org/2000/svg">
  <defs
     id="defs1" />
  <sodipodi:namedview
     id="namedview1"
     pagecolor="#ffffff"
     bordercolor="#000000"
     borderopacity="0.25"
     inkscape:showpageshadow="2"
     inkscape:pageopacity="0.0"
     inkscape:pagecheckerboard="0"
     inkscape:deskcolor="#d1d1d1"
     showgrid="false" />
  <!--!Font Awesome Free 6.5.2 by @fontawesome - https://fontawesome.com License - https://fontawesome.com/license/free Copyright 2024 Fonticons, Inc.-->
  <path
     d="M 2.75,1.375 C 2.75,0.61445313 2.1355469,0 1.375,0 0.61445313,0 0,0.61445313 0,1.375 V 15.8125 C 0,17.711718 1.5382812,19.25 3.4375,19.25 H 20.625 C 21.385547,19.25 22,18.635547 22,17.875 22,17.114453 21.385547,16.5 20.625,16.5 H 3.4375 C 3.059375,16.5 2.75,16.190625 2.75,15.8125 Z m 17.471094,3.7210938 c 0.537109,-0.5371095 0.537109,-1.409375 0,-1.9464845 -0.53711,-0.5371093 -1.409376,-0.5371093 -1.946485,0 L 13.75,7.6785156 11.283594,5.2121093 C 10.746485,4.675 9.8742192,4.675 9.3371095,5.2121093 L 4.5246094,10.02461 c -0.5371094,0.537109 -0.5371094,1.409374 0,1.946484 0.5371094,0.537109 1.409375,0.537109 1.9464844,0 L 10.3125,8.1339845 12.778906,10.60039 c 0.53711,0.53711 1.409375,0.53711 1.946485,0 l 5.5,-5.4999993 z"
     id="path1"
     style="stroke-width:0.0429688"
     inkscape:export-filename="chart-line-solid32.svg"
     inkscape:export-xdpi="96"
     inkscape:export-ydpi="96" />
</svg>
