<?xml version="1.0" encoding="UTF-8" standalone="no"?>
<svg
   viewBox="0 0 21.248078 17"
   version="1.1"
   id="svg127"
   sodipodi:docname="code-solid32.svg"
   width="21.248077"
   height="17"
   inkscape:version="1.1.2 (b8e25be833, 2022-02-05)"
   xmlns:inkscape="http://www.inkscape.org/namespaces/inkscape"
   xmlns:sodipodi="http://sodipodi.sourceforge.net/DTD/sodipodi-0.dtd"
   xmlns="http://www.w3.org/2000/svg"
   xmlns:svg="http://www.w3.org/2000/svg">
  <defs
     id="defs131" />
  <sodipodi:namedview
     id="namedview129"
     pagecolor="#ffffff"
     bordercolor="#666666"
     borderopacity="1.0"
     inkscape:pageshadow="2"
     inkscape:pageopacity="0.0"
     inkscape:pagecheckerboard="0"
     showgrid="false"
     inkscape:zoom="1.653125"
     inkscape:cx="-94.064272"
     inkscape:cy="8.4688091"
     inkscape:window-width="2560"
     inkscape:window-height="1377"
     inkscape:window-x="-8"
     inkscape:window-y="-8"
     inkscape:window-maximized="1"
     inkscape:current-layer="svg127" />
  <!--! Font Awesome Pro 6.1.1 by @fontawesome - https://fontawesome.com License - https://fontawesome.com/license (Commercial License) Copyright 2022 Fonticons, Inc. -->
  <path
     d="M 13.771949,1.3545401 9.5221675,16.229108 c -0.1626879,0.564423 -0.750349,0.889797 -1.314778,0.73043 -0.564422,-0.162687 -0.889797,-0.750349 -0.730429,-1.314778 L 11.726742,0.77086209 c 0.162687,-0.5642226 0.750349,-0.8909251 1.314778,-0.7296987 0.564421,0.1611933 0.889796,0.7492869 0.730429,1.31337671 z m 3.446305,2.6763677 3.718558,3.7185594 c 0.415022,0.415015 0.415022,1.085684 0,1.500705 L 17.218254,12.96873 c -0.415015,0.415016 -1.085685,0.415016 -1.500706,0 -0.415015,-0.415021 -0.415015,-1.08569 0,-1.500704 L 18.682437,8.4998162 15.717548,5.5316133 c -0.415015,-0.4150219 -0.415015,-1.0856842 0,-1.5007055 0.415021,-0.4150147 1.085691,-0.4150147 1.500706,0 z M 5.5313606,5.5316133 2.5648104,8.4998162 5.5313606,11.468026 c 0.4150139,0.415014 0.4150139,1.085683 0,1.500704 -0.415021,0.415016 -1.0856905,0.415016 -1.5007054,0 L 0.31116645,9.2501722 c -0.4148886,-0.415021 -0.4148886,-1.08569 0,-1.500705 L 4.0306551,4.0309078 c 0.415015,-0.4150147 1.0856844,-0.4150147 1.5007054,0 0.415014,0.4150213 0.415014,1.0856836 1e-7,1.5007055 z"
     id="path125"
     style="stroke-width:0.0332014" />
</svg>
