<?xml version="1.0" encoding="UTF-8" standalone="no"?>
<svg
   viewBox="0 0 32.000004 25.60232"
   version="1.1"
   id="svg127"
   sodipodi:docname="code-solid32.svg"
   width="32.000004"
   height="25.60232"
   inkscape:version="1.1.2 (b8e25be833, 2022-02-05)"
   xmlns:inkscape="http://www.inkscape.org/namespaces/inkscape"
   xmlns:sodipodi="http://sodipodi.sourceforge.net/DTD/sodipodi-0.dtd"
   xmlns="http://www.w3.org/2000/svg"
   xmlns:svg="http://www.w3.org/2000/svg">
  <defs
     id="defs131" />
  <sodipodi:namedview
     id="namedview129"
     pagecolor="#ffffff"
     bordercolor="#666666"
     borderopacity="1.0"
     inkscape:pageshadow="2"
     inkscape:pageopacity="0.0"
     inkscape:pagecheckerboard="0"
     showgrid="false"
     inkscape:zoom="1.653125"
     inkscape:cx="-88.620038"
     inkscape:cy="12.703214"
     inkscape:window-width="2560"
     inkscape:window-height="1377"
     inkscape:window-x="-8"
     inkscape:window-y="-8"
     inkscape:window-maximized="1"
     inkscape:current-layer="svg127" />
  <!--! Font Awesome Pro 6.1.1 by @fontawesome - https://fontawesome.com License - https://fontawesome.com/license (Commercial License) Copyright 2022 Fonticons, Inc. -->
  <path
     d="m 18.962741,6.076021 -3.999794,13.999594 c -0.153118,0.531221 -0.706211,0.837456 -1.237438,0.687463 -0.531221,-0.153117 -0.837456,-0.706211 -0.687463,-1.237438 L 17.03784,5.526677 c 0.153117,-0.5310331 0.706211,-0.8385178 1.237438,-0.6867753 0.53122,0.1517113 0.837455,0.7052112 0.687463,1.2361193 z m 3.243581,2.5189343 3.499819,3.4998207 c 0.390609,0.390602 0.390609,1.02182 0,1.412428 l -3.499819,3.49982 c -0.390602,0.390603 -1.021821,0.390603 -1.412429,0 -0.390602,-0.390608 -0.390602,-1.021826 0,-1.412428 l 2.790484,-2.793609 -2.790484,-2.793603 c -0.390602,-0.3906088 -0.390602,-1.0218204 0,-1.4124287 0.390608,-0.3906021 1.021827,-0.3906021 1.412429,0 z m -10.999429,1.4124287 -2.7920471,2.793603 2.7920471,2.793609 c 0.390602,0.390602 0.390602,1.02182 0,1.412428 -0.390608,0.390603 -1.021826,0.390603 -1.4124284,0 l -3.5006953,-3.49982 c -0.3904834,-0.390608 -0.3904834,-1.021826 0,-1.412428 L 9.7944646,8.5949553 c 0.3906024,-0.3906021 1.0218204,-0.3906021 1.4124284,0 0.390602,0.3906083 0.390602,1.0218199 0,1.4124287 z"
     id="path125"
     style="stroke-width:0.0312484" />
</svg>
