<?xml version="1.0" encoding="UTF-8" standalone="no"?>
<svg
   viewBox="0 0 32.000004 25.60232"
   version="1.1"
   id="svg127"
   sodipodi:docname="code-solid32.svg"
   width="32.000004"
   height="25.60232"
   inkscape:version="1.1.2 (b8e25be833, 2022-02-05)"
   xmlns:inkscape="http://www.inkscape.org/namespaces/inkscape"
   xmlns:sodipodi="http://sodipodi.sourceforge.net/DTD/sodipodi-0.dtd"
   xmlns="http://www.w3.org/2000/svg"
   xmlns:svg="http://www.w3.org/2000/svg">
  <defs
     id="defs131" />
  <sodipodi:namedview
     id="namedview129"
     pagecolor="#ffffff"
     bordercolor="#666666"
     borderopacity="1.0"
     inkscape:pageshadow="2"
     inkscape:pageopacity="0.0"
     inkscape:pagecheckerboard="0"
     showgrid="false"
     inkscape:zoom="1.653125"
     inkscape:cx="-88.620038"
     inkscape:cy="12.703214"
     inkscape:window-width="2560"
     inkscape:window-height="1377"
     inkscape:window-x="-8"
     inkscape:window-y="-8"
     inkscape:window-maximized="1"
     inkscape:current-layer="svg127" />
  <!--! Font Awesome Pro 6.1.1 by @fontawesome - https://fontawesome.com License - https://fontawesome.com/license (Commercial License) Copyright 2022 Fonticons, Inc. -->
  <path
     d="m 20.740813,2.0399629 -6.40025,22.4013801 c -0.24501,0.85003 -1.13004,1.34005 -1.98008,1.10004 -0.85003,-0.24501 -1.34005,-1.13004 -1.10004,-1.98008 l 6.40025,-22.4003701 c 0.24501,-0.84973004 1.13004,-1.34175004 1.98008,-1.09894004 0.85003,0.24276 1.34005,1.12844004 1.10004,1.97797004 z m 5.1902,4.03066 5.600219,5.6002201 c 0.62503,0.62502 0.62503,1.63506 0,2.26009 l -5.600219,5.60022 c -0.62502,0.62502 -1.635061,0.62502 -2.26009,0 -0.62502,-0.62503 -0.62502,-1.63507 0,-2.26009 l 4.465179,-4.47018 -4.465179,-4.4701701 c -0.62502,-0.62503 -0.62502,-1.63506 0,-2.26009 0.625029,-0.62502 1.63507,-0.62502 2.26009,0 z m -17.6006805,2.26009 -4.46768,4.4701701 4.46768,4.47018 c 0.62502,0.62502 0.62502,1.63506 0,2.26009 -0.62503,0.62502 -1.63507,0.62502 -2.26009,0 l -5.60162,-5.60022 c -0.62483,-0.62503 -0.62483,-1.63507 0,-2.26009 l 5.60162,-5.6002201 c 0.62502,-0.62502 1.63506,-0.62502 2.26009,0 0.62502,0.62503 0.62502,1.63506 0,2.26009 z"
     id="path125"
     style="stroke-width:0.050002" />
</svg>
