<?xml version="1.0" encoding="UTF-8" standalone="no"?>
<svg
   xmlns:dc="http://purl.org/dc/elements/1.1/"
   xmlns:cc="http://creativecommons.org/ns#"
   xmlns:rdf="http://www.w3.org/1999/02/22-rdf-syntax-ns#"
   xmlns:svg="http://www.w3.org/2000/svg"
   xmlns="http://www.w3.org/2000/svg"
   xmlns:sodipodi="http://sodipodi.sourceforge.net/DTD/sodipodi-0.dtd"
   xmlns:inkscape="http://www.inkscape.org/namespaces/inkscape"
   aria-hidden="true"
   focusable="false"
   data-prefix="fas"
   data-icon="database"
   class="svg-inline--fa fa-database fa-w-14"
   role="img"
   viewBox="0 0 27.999998 32"
   version="1.1"
   id="svg4"
   sodipodi:docname="database-solid32.svg"
   width="27.999998"
   height="32"
   inkscape:version="0.92.3 (2405546, 2018-03-11)">
  <metadata
     id="metadata10">
    <rdf:RDF>
      <cc:Work
         rdf:about="">
        <dc:format>image/svg+xml</dc:format>
        <dc:type
           rdf:resource="http://purl.org/dc/dcmitype/StillImage" />
        <dc:title></dc:title>
      </cc:Work>
    </rdf:RDF>
  </metadata>
  <defs
     id="defs8" />
  <sodipodi:namedview
     pagecolor="#ffffff"
     bordercolor="#666666"
     borderopacity="1"
     objecttolerance="10"
     gridtolerance="10"
     guidetolerance="10"
     inkscape:pageopacity="0"
     inkscape:pageshadow="2"
     inkscape:window-width="3840"
     inkscape:window-height="1973"
     id="namedview6"
     showgrid="false"
     inkscape:zoom="10.429825"
     inkscape:cx="39.704318"
     inkscape:cy="29.900017"
     inkscape:window-x="-18"
     inkscape:window-y="-18"
     inkscape:window-maximized="1"
     inkscape:current-layer="svg4" />
  <path
     d="M 27.999998,4.57144 V 7.42857 C 27.999998,9.94644 21.729187,12 14,12 6.2708121,12 0,9.94644 0,7.42857 V 4.57144 C 0,2.05357 6.2708121,0 14,0 21.729187,0 27.999998,2.05357 27.999998,4.57144 Z m 0,6.42856 v 6.42857 C 27.999998,19.94644 21.729187,22 14,22 6.2708121,22 0,19.94644 0,17.42857 V 11 c 3.0078123,2.07144 8.5129996,3.03575 14,3.03575 5.486999,0 10.992124,-0.96431 13.999998,-3.03575 z m 0,10 v 6.42856 C 27.999998,29.94644 21.729187,32 14,32 6.2708121,32 0,29.94644 0,27.42856 V 21 c 3.0078123,2.07144 8.5129996,3.03575 14,3.03575 5.486999,0 10.992124,-0.96431 13.999998,-3.03575 z"
     id="path2"
     inkscape:connector-curvature="0"
     style="fill:currentColor;stroke-width:1" />
</svg>
