<?xml version="1.0" encoding="UTF-8" standalone="no"?>
<svg
   xmlns:dc="http://purl.org/dc/elements/1.1/"
   xmlns:cc="http://creativecommons.org/ns#"
   xmlns:rdf="http://www.w3.org/1999/02/22-rdf-syntax-ns#"
   xmlns:svg="http://www.w3.org/2000/svg"
   xmlns="http://www.w3.org/2000/svg"
   xmlns:sodipodi="http://sodipodi.sourceforge.net/DTD/sodipodi-0.dtd"
   xmlns:inkscape="http://www.inkscape.org/namespaces/inkscape"
   aria-hidden="true"
   focusable="false"
   data-prefix="fas"
   data-icon="database"
   class="svg-inline--fa fa-database fa-w-14"
   role="img"
   viewBox="0 0 2.8 3.2000003"
   version="1.1"
   id="svg4"
   sodipodi:docname="database-solid32.svg"
   width="2.8"
   height="3.2000003"
   inkscape:version="0.92.3 (2405546, 2018-03-11)">
  <metadata
     id="metadata10">
    <rdf:RDF>
      <cc:Work
         rdf:about="">
        <dc:format>image/svg+xml</dc:format>
        <dc:type
           rdf:resource="http://purl.org/dc/dcmitype/StillImage" />
        <dc:title></dc:title>
      </cc:Work>
    </rdf:RDF>
  </metadata>
  <defs
     id="defs8" />
  <sodipodi:namedview
     pagecolor="#ffffff"
     bordercolor="#666666"
     borderopacity="1"
     objecttolerance="10"
     gridtolerance="10"
     guidetolerance="10"
     inkscape:pageopacity="0"
     inkscape:pageshadow="2"
     inkscape:window-width="3840"
     inkscape:window-height="1973"
     id="namedview6"
     showgrid="false"
     inkscape:zoom="10.429825"
     inkscape:cx="39.704318"
     inkscape:cy="29.900017"
     inkscape:window-x="-18"
     inkscape:window-y="-18"
     inkscape:window-maximized="1"
     inkscape:current-layer="svg4" />
  <path
     d="m 9.4999999,-6.1061193 v 0.969384 c 0,0.8542767 -2.1275966,1.5510212 -4.7499996,1.5510212 C 2.1275972,-3.5857141 0,-4.2824586 0,-5.1367353 v -0.969384 c 0,-0.854277 2.1275972,-1.5510243 4.7500003,-1.5510243 2.622403,0 4.7499996,0.6967473 4.7499996,1.5510243 z m 0,2.1811192 v 2.1811223 c 0,0.85427694 -2.1275966,1.55102016 -4.7499996,1.55102016 C 2.1275972,-0.19285764 0,-0.88960086 0,-1.7438778 v -2.1811223 c 1.0205078,0.70281 2.8883392,1.0299866 4.7500003,1.0299866 1.8616607,0 3.7294709,-0.3271766 4.7499996,-1.0299866 z m 0,3.39285675 V 1.6489759 c 0,0.8542803 -2.1275966,1.5510242 -4.7499996,1.5510242 C 2.1275972,3.2000001 0,2.5032562 0,1.6489759 v -2.18111925 c 1.0205078,0.70281101 2.8883392,1.02998693 4.7500003,1.02998693 1.8616607,0 3.7294709,-0.3271766 4.7499996,-1.02998693 z"
     id="path2"
     inkscape:connector-curvature="0"
     style="fill:currentColor;stroke-width:0.99999988" />
</svg>
