<?xml version="1.0" encoding="UTF-8" standalone="no"?>
<svg
   xmlns:dc="http://purl.org/dc/elements/1.1/"
   xmlns:cc="http://creativecommons.org/ns#"
   xmlns:rdf="http://www.w3.org/1999/02/22-rdf-syntax-ns#"
   xmlns:svg="http://www.w3.org/2000/svg"
   xmlns="http://www.w3.org/2000/svg"
   xmlns:sodipodi="http://sodipodi.sourceforge.net/DTD/sodipodi-0.dtd"
   xmlns:inkscape="http://www.inkscape.org/namespaces/inkscape"
   aria-hidden="true"
   focusable="false"
   data-prefix="fas"
   data-icon="database"
   class="svg-inline--fa fa-database fa-w-14"
   role="img"
   viewBox="0 0 11.338582 12.958381"
   version="1.1"
   id="svg4"
   sodipodi:docname="database-solid32.svg"
   width="11.338582"
   height="12.958382"
   inkscape:version="0.92.3 (2405546, 2018-03-11)">
  <metadata
     id="metadata10">
    <rdf:RDF>
      <cc:Work
         rdf:about="">
        <dc:format>image/svg+xml</dc:format>
        <dc:type
           rdf:resource="http://purl.org/dc/dcmitype/StillImage" />
        <dc:title></dc:title>
      </cc:Work>
    </rdf:RDF>
  </metadata>
  <defs
     id="defs8" />
  <sodipodi:namedview
     pagecolor="#ffffff"
     bordercolor="#666666"
     borderopacity="1"
     objecttolerance="10"
     gridtolerance="10"
     guidetolerance="10"
     inkscape:pageopacity="0"
     inkscape:pageshadow="2"
     inkscape:window-width="3840"
     inkscape:window-height="1973"
     id="namedview6"
     showgrid="false"
     inkscape:zoom="10.429825"
     inkscape:cx="39.704318"
     inkscape:cy="29.900018"
     inkscape:window-x="-18"
     inkscape:window-y="-18"
     inkscape:window-maximized="1"
     inkscape:current-layer="svg4" />
  <path
     d="m 11.338582,1.8512018 v 1.1569937 c 0,1.0196092 -2.5393606,1.8511981 -5.6692904,1.8511981 C 2.5393617,4.8593936 0,4.0278047 0,3.0081955 V 1.8512018 C 0,0.8315923 2.5393617,0 5.6692916,0 8.7992214,0 11.338582,0.8315923 11.338582,1.8512018 Z m 0,2.6032421 v 2.6032458 c 0,1.0196094 -2.5393606,1.8511969 -5.6692904,1.8511969 C 2.5393617,8.9088866 0,8.0772991 0,7.0576897 V 4.4544439 c 1.2180118,0.8388283 3.4473339,1.229325 5.6692916,1.229325 2.2219572,0 4.4512544,-0.3904967 5.6692904,-1.229325 z m 0,4.0494932 v 2.6032419 c 0,1.019614 -2.5393606,1.851203 -5.6692904,1.851203 C 2.5393617,12.958382 0,12.126793 0,11.107179 V 8.5039371 c 1.2180118,0.8388297 3.4473339,1.2293255 5.6692916,1.2293255 2.2219572,0 4.4512544,-0.3904967 5.6692904,-1.2293255 z"
     id="path2"
     inkscape:connector-curvature="0"
     style="fill:currentColor;stroke-width:0.99999988" />
</svg>
