<?xml version="1.0" encoding="UTF-8" standalone="no"?>
<svg
   xmlns:dc="http://purl.org/dc/elements/1.1/"
   xmlns:cc="http://creativecommons.org/ns#"
   xmlns:rdf="http://www.w3.org/1999/02/22-rdf-syntax-ns#"
   xmlns:svg="http://www.w3.org/2000/svg"
   xmlns="http://www.w3.org/2000/svg"
   xmlns:sodipodi="http://sodipodi.sourceforge.net/DTD/sodipodi-0.dtd"
   xmlns:inkscape="http://www.inkscape.org/namespaces/inkscape"
   aria-hidden="true"
   focusable="false"
   data-prefix="fas"
   data-icon="database"
   class="svg-inline--fa fa-database fa-w-14"
   role="img"
   viewBox="0 0 2.8 3.2000003"
   version="1.1"
   id="svg4"
   sodipodi:docname="database-solid32.svg"
   width="2.8"
   height="3.2000003"
   inkscape:version="0.92.3 (2405546, 2018-03-11)">
  <metadata
     id="metadata10">
    <rdf:RDF>
      <cc:Work
         rdf:about="">
        <dc:format>image/svg+xml</dc:format>
        <dc:type
           rdf:resource="http://purl.org/dc/dcmitype/StillImage" />
        <dc:title></dc:title>
      </cc:Work>
    </rdf:RDF>
  </metadata>
  <defs
     id="defs8" />
  <sodipodi:namedview
     pagecolor="#ffffff"
     bordercolor="#666666"
     borderopacity="1"
     objecttolerance="10"
     gridtolerance="10"
     guidetolerance="10"
     inkscape:pageopacity="0"
     inkscape:pageshadow="2"
     inkscape:window-width="3840"
     inkscape:window-height="1973"
     id="namedview6"
     showgrid="false"
     inkscape:zoom="10.429825"
     inkscape:cx="39.704318"
     inkscape:cy="29.900017"
     inkscape:window-x="-18"
     inkscape:window-y="-18"
     inkscape:window-maximized="1"
     inkscape:current-layer="svg4" />
  <path
     d="M 2.8,0.457144 V 0.7428572 C 2.8,0.994644 2.1729189,1.2000003 1.4000001,1.2000003 0.62708128,1.2000003 0,0.994644 0,0.7428572 V 0.457144 C 0,0.2053571 0.62708128,0 1.4000001,0 2.1729189,0 2.8,0.2053571 2.8,0.457144 Z m 0,0.6428562 V 1.7428573 C 2.8,1.9946442 2.1729189,2.2000001 1.4000001,2.2000001 0.62708128,2.2000001 0,1.9946442 0,1.7428573 V 1.1000002 c 0.30078124,0.207144 0.8513,0.303575 1.4000001,0.303575 0.5487,0 1.0992125,-0.096431 1.3999999,-0.303575 z m 0,0.9999999 V 2.7428563 C 2.8,2.9946442 2.1729189,3.2000003 1.4000001,3.2000003 0.62708128,3.2000003 0,2.9946442 0,2.7428563 V 2.1000001 c 0.30078124,0.2071443 0.8513,0.3035751 1.4000001,0.3035751 0.5487,0 1.0992125,-0.096431 1.3999999,-0.3035751 z"
     id="path2"
     inkscape:connector-curvature="0"
     style="fill:currentColor;stroke-width:0.99999988" />
</svg>
