<?xml version="1.0" encoding="UTF-8" standalone="no"?>
<svg
   viewBox="0 0 32 42.66666"
   version="1.1"
   id="svg147"
   sodipodi:docname="file-arrow-down-solid32.svg"
   width="32"
   height="42.66666"
   inkscape:version="1.1.2 (b8e25be833, 2022-02-05)"
   xmlns:inkscape="http://www.inkscape.org/namespaces/inkscape"
   xmlns:sodipodi="http://sodipodi.sourceforge.net/DTD/sodipodi-0.dtd"
   xmlns="http://www.w3.org/2000/svg"
   xmlns:svg="http://www.w3.org/2000/svg">
  <defs
     id="defs151" />
  <sodipodi:namedview
     id="namedview149"
     pagecolor="#ffffff"
     bordercolor="#666666"
     borderopacity="1.0"
     inkscape:pageshadow="2"
     inkscape:pageopacity="0.0"
     inkscape:pagecheckerboard="0"
     showgrid="false"
     inkscape:zoom="1.7050781"
     inkscape:cx="-84.74685"
     inkscape:cy="21.113402"
     inkscape:window-width="2560"
     inkscape:window-height="1377"
     inkscape:window-x="-8"
     inkscape:window-y="-8"
     inkscape:window-maximized="1"
     inkscape:current-layer="svg147" />
  <!--! Font Awesome Pro 6.1.1 by @fontawesome - https://fontawesome.com License - https://fontawesome.com/license (Commercial License) Copyright 2022 Fonticons, Inc. -->
  <path
     d="M 32,10.66666 H 21.33333 V 0 Z M 21.33333,13.33333 H 32 v 25.33333 c 0,2.20917 -1.79083,4 -4,4 H 4 c -2.20917,0 -4,-1.79166 -4,-4 V 4 C 0,1.79083 1.79083,0 4,0 h 14.66667 l 3.2e-4,10.66666 c -3.2e-4,1.475 1.19134,2.66667 2.66634,2.66667 z M 21.25,24.58333 18,27.84166 v -8.50833 c 0,-1.10417 -0.89583,-2 -2,-2 -1.10417,0 -2,0.9 -2,2 v 8.50833 L 10.675,24.58333 C 10.35833,24.19166 9.85,24 9.33333,24 8.81667,24 8.31,24.19166 7.91917,24.58333 c -0.78125,0.78125 -0.78125,2.04667 0,2.82833 l 6.66666,6.66667 c 0.78125,0.78125 2.04667,0.78125 2.82834,0 l 6.66666,-6.66667 c 0.78125,-0.78125 0.78125,-2.04666 0,-2.82833 -0.78125,-0.78167 -2.0475,-0.775 -2.83083,0 z"
     id="path145"
     style="stroke-width:0.0833333" />
</svg>
