<?xml version="1.0" encoding="UTF-8" standalone="no"?>
<svg
   viewBox="0 0 12.624752 16.833"
   version="1.1"
   id="svg147"
   sodipodi:docname="file-arrow-down-solid32.svg"
   width="12.624752"
   height="16.833"
   inkscape:version="1.1.2 (b8e25be833, 2022-02-05)"
   xmlns:inkscape="http://www.inkscape.org/namespaces/inkscape"
   xmlns:sodipodi="http://sodipodi.sourceforge.net/DTD/sodipodi-0.dtd"
   xmlns="http://www.w3.org/2000/svg"
   xmlns:svg="http://www.w3.org/2000/svg">
  <defs
     id="defs151" />
  <sodipodi:namedview
     id="namedview149"
     pagecolor="#ffffff"
     bordercolor="#666666"
     borderopacity="1.0"
     inkscape:pageshadow="2"
     inkscape:pageopacity="0.0"
     inkscape:pagecheckerboard="0"
     showgrid="false"
     inkscape:zoom="1.7050781"
     inkscape:cx="-195.59221"
     inkscape:cy="8.2107676"
     inkscape:window-width="2560"
     inkscape:window-height="1377"
     inkscape:window-x="-8"
     inkscape:window-y="-8"
     inkscape:window-maximized="1"
     inkscape:current-layer="svg147" />
  <!--! Font Awesome Pro 6.1.1 by @fontawesome - https://fontawesome.com License - https://fontawesome.com/license (Commercial License) Copyright 2022 Fonticons, Inc. -->
  <path
     d="M 12.624752,4.208248 H 8.4165001 V 0 Z M 8.4165001,5.260312 h 4.2082519 v 9.994594 c 0,0.87157 -0.706524,1.578094 -1.578094,1.578094 H 1.5780939 C 0.70652451,16.833 0,16.126148 0,15.254906 V 1.578094 C 0,0.70652447 0.70652451,0 1.5780939,0 h 5.786346 l 1.262e-4,4.208248 c -1.262e-4,0.5819222 0.4700118,1.052064 1.051934,1.052064 z M 8.3836206,9.6987016 7.1014189,10.984189 V 7.627453 c 4e-6,-0.435621 -0.353422,-0.789047 -0.789043,-0.789047 -0.435621,0 -0.789047,0.3550712 -0.789047,0.789047 v 3.356736 L 4.2115382,9.6987016 C 4.0866046,9.5441786 3.8860565,9.468564 3.682218,9.468564 c -0.2038346,0 -0.4037277,0.075611 -0.5579193,0.2301376 -0.3082215,0.3082214 -0.3082215,0.8074594 0,1.1158424 l 2.6301539,2.630158 c 0.3082215,0.308221 0.8074595,0.308221 1.1158467,0 L 9.500453,10.814544 c 0.3082219,-0.308221 0.3082219,-0.807455 0,-1.1158424 -0.3082209,-0.3083879 -0.8077863,-0.3057562 -1.1168285,0 z"
     id="path145"
     style="stroke-width:0.0328769" />
</svg>
