<?xml version="1.0" encoding="UTF-8" standalone="no"?>
<svg
   viewBox="0 0 12.774752 17.033001"
   version="1.1"
   id="svg147"
   sodipodi:docname="file-arrow-down-solid32.svg"
   width="12.774752"
   height="17.033001"
   inkscape:version="1.1.2 (b8e25be833, 2022-02-05)"
   xmlns:inkscape="http://www.inkscape.org/namespaces/inkscape"
   xmlns:sodipodi="http://sodipodi.sourceforge.net/DTD/sodipodi-0.dtd"
   xmlns="http://www.w3.org/2000/svg"
   xmlns:svg="http://www.w3.org/2000/svg">
  <defs
     id="defs151" />
  <sodipodi:namedview
     id="namedview149"
     pagecolor="#ffffff"
     bordercolor="#666666"
     borderopacity="1.0"
     inkscape:pageshadow="2"
     inkscape:pageopacity="0.0"
     inkscape:pagecheckerboard="0"
     showgrid="false"
     inkscape:zoom="1.7050781"
     inkscape:cx="-195.59221"
     inkscape:cy="8.2107676"
     inkscape:window-width="2560"
     inkscape:window-height="1377"
     inkscape:window-x="-8"
     inkscape:window-y="-8"
     inkscape:window-maximized="1"
     inkscape:current-layer="svg147" />
  <!--! Font Awesome Pro 6.1.1 by @fontawesome - https://fontawesome.com License - https://fontawesome.com/license (Commercial License) Copyright 2022 Fonticons, Inc. -->
  <path
     d="M 12.774752,4.258248 H 8.5165 V 0 Z M 8.5165,5.322812 h 4.258252 v 10.113344 c 0,0.881925 -0.714919,1.596844 -1.596844,1.596844 H 1.596844 C 0.714919,17.033 0,16.31775 0,15.436156 V 1.596844 C 0,0.714919 0.714919,0 1.596844,0 H 7.45194 l 1.277e-4,4.258248 C 7.45194,4.8470842 7.9276638,5.322812 8.5165,5.322812 Z M 8.48323,9.813936 7.185794,11.114697 V 7.718078 c 4e-6,-0.4407968 -0.3576212,-0.798422 -0.798418,-0.798422 -0.4407968,0 -0.798422,0.3592899 -0.798422,0.798422 v 3.396619 L 4.2615774,9.813936 C 4.1351593,9.657577 3.9322284,9.581064 3.725968,9.581064 c -0.2062564,0 -0.4085246,0.07651 -0.5645482,0.232872 -0.3118836,0.311883 -0.3118836,0.817053 0,1.1291 l 2.661404,2.661408 c 0.3118836,0.311884 0.8170532,0.311884 1.1291044,0 L 9.613332,10.943036 c 0.311884,-0.311883 0.311884,-0.817049 0,-1.1291 -0.311883,-0.312052 -0.817384,-0.309389 -1.130098,0 z"
     id="path145"
     style="stroke-width:0.0332675" />
</svg>
