<?xml version="1.0" encoding="UTF-8" standalone="no"?>
<svg
   viewBox="0 0 16 21.33333"
   version="1.1"
   id="svg147"
   sodipodi:docname="file-arrow-down-solid32.svg"
   width="16"
   height="21.33333"
   inkscape:version="1.1.2 (b8e25be833, 2022-02-05)"
   xmlns:inkscape="http://www.inkscape.org/namespaces/inkscape"
   xmlns:sodipodi="http://sodipodi.sourceforge.net/DTD/sodipodi-0.dtd"
   xmlns="http://www.w3.org/2000/svg"
   xmlns:svg="http://www.w3.org/2000/svg">
  <defs
     id="defs151" />
  <sodipodi:namedview
     id="namedview149"
     pagecolor="#ffffff"
     bordercolor="#666666"
     borderopacity="1.0"
     inkscape:pageshadow="2"
     inkscape:pageopacity="0.0"
     inkscape:pagecheckerboard="0"
     showgrid="false"
     inkscape:zoom="1.7050781"
     inkscape:cx="-92.957617"
     inkscape:cy="10.556701"
     inkscape:window-width="2560"
     inkscape:window-height="1377"
     inkscape:window-x="-8"
     inkscape:window-y="-8"
     inkscape:window-maximized="1"
     inkscape:current-layer="svg147" />
  <!--! Font Awesome Pro 6.1.1 by @fontawesome - https://fontawesome.com License - https://fontawesome.com/license (Commercial License) Copyright 2022 Fonticons, Inc. -->
  <path
     d="M 16,5.33333 H 10.666665 V 0 Z M 10.666665,6.666665 H 16 V 19.33333 c 0,1.104585 -0.895415,2 -2,2 H 2 c -1.104585,0 -2,-0.89583 -2,-2 V 2 C 0,0.895415 0.895415,0 2,0 h 7.333335 l 1.6e-4,5.33333 c -1.6e-4,0.7375 0.59567,1.333335 1.33317,1.333335 z M 10.625,12.291665 9,13.92083 V 9.666665 c 0,-0.552085 -0.447915,-1 -1,-1 -0.552085,0 -1,0.45 -1,1 V 13.92083 L 5.3375,12.291665 C 5.179165,12.09583 4.925,12 4.666665,12 4.408335,12 4.155,12.09583 3.959585,12.291665 3.56896,12.68229 3.56896,13.315 3.959585,13.70583 l 3.33333,3.333335 c 0.390625,0.390625 1.023335,0.390625 1.41417,0 l 3.33333,-3.333335 c 0.390625,-0.390625 0.390625,-1.02333 0,-1.414165 -0.390625,-0.390835 -1.02375,-0.3875 -1.415415,0 z"
     id="path145"
     style="stroke-width:0.0416666" />
</svg>
