<?xml version="1.0" encoding="UTF-8" standalone="no"?>
<svg
   viewBox="0 0 12.024752 16.033001"
   version="1.1"
   id="svg147"
   sodipodi:docname="file-arrow-down-solid32.svg"
   width="12.024752"
   height="16.033001"
   inkscape:version="1.1.2 (b8e25be833, 2022-02-05)"
   xmlns:inkscape="http://www.inkscape.org/namespaces/inkscape"
   xmlns:sodipodi="http://sodipodi.sourceforge.net/DTD/sodipodi-0.dtd"
   xmlns="http://www.w3.org/2000/svg"
   xmlns:svg="http://www.w3.org/2000/svg">
  <defs
     id="defs151" />
  <sodipodi:namedview
     id="namedview149"
     pagecolor="#ffffff"
     bordercolor="#666666"
     borderopacity="1.0"
     inkscape:pageshadow="2"
     inkscape:pageopacity="0.0"
     inkscape:pagecheckerboard="0"
     showgrid="false"
     inkscape:zoom="1.7050781"
     inkscape:cx="-196.1787"
     inkscape:cy="7.6242842"
     inkscape:window-width="2560"
     inkscape:window-height="1377"
     inkscape:window-x="-8"
     inkscape:window-y="-8"
     inkscape:window-maximized="1"
     inkscape:current-layer="svg147" />
  <!--! Font Awesome Pro 6.1.1 by @fontawesome - https://fontawesome.com License - https://fontawesome.com/license (Commercial License) Copyright 2022 Fonticons, Inc. -->
  <path
     d="M 12.024752,4.0082481 H 8.0165 V 0 Z M 8.0165,5.010312 h 4.008252 v 9.519594 c 0,0.830148 -0.672946,1.503094 -1.503094,1.503094 H 1.5030939 C 0.67294644,16.033 0,15.359742 0,14.529906 V 1.503094 C 0,0.6729464 0.67294644,0 1.5030939,0 H 7.0144398 L 7.01456,4.0082481 C 7.0144398,4.562514 7.4622341,5.010312 8.0165,5.010312 Z M 7.9851832,9.2377641 6.7639191,10.462158 V 7.264953 c 3.8e-6,-0.4149178 -0.3366254,-0.751547 -0.7515432,-0.751547 -0.4149178,0 -0.751547,0.3381962 -0.751547,0.751547 v 3.197205 L 4.011382,9.2377641 C 3.8923859,9.0905849 3.7013689,9.0185639 3.507218,9.0185639 c -0.1941472,0 -0.3845403,0.072018 -0.5314038,0.2192002 -0.2935731,0.2935729 -0.2935731,0.7690839 0,1.0628109 l 2.5051541,2.505158 c 0.2935731,0.293573 0.7690844,0.293573 1.0628152,0 l 2.5051539,-2.505158 c 0.2935735,-0.293572 0.2935735,-0.76908 0,-1.0628109 -0.2935725,-0.2937316 -0.7693957,-0.2912249 -1.0637504,0 z"
     id="path145"
     style="stroke-width:0.0313144" />
</svg>
