<?xml version="1.0" encoding="UTF-8" standalone="no"?>
<svg
   xmlns:dc="http://purl.org/dc/elements/1.1/"
   xmlns:cc="http://creativecommons.org/ns#"
   xmlns:rdf="http://www.w3.org/1999/02/22-rdf-syntax-ns#"
   xmlns:svg="http://www.w3.org/2000/svg"
   xmlns="http://www.w3.org/2000/svg"
   xmlns:sodipodi="http://sodipodi.sourceforge.net/DTD/sodipodi-0.dtd"
   xmlns:inkscape="http://www.inkscape.org/namespaces/inkscape"
   aria-hidden="true"
   focusable="false"
   data-prefix="far"
   data-icon="paper-plane"
   class="svg-inline--fa fa-paper-plane fa-w-16"
   role="img"
   viewBox="0 0 32 39.999996"
   version="1.1"
   id="svg4"
   sodipodi:docname="paper-plane-regular32.svg"
   width="32"
   height="39.999996"
   inkscape:version="0.92.3 (2405546, 2018-03-11)">
  <metadata
     id="metadata10">
    <rdf:RDF>
      <cc:Work
         rdf:about="">
        <dc:format>image/svg+xml</dc:format>
        <dc:type
           rdf:resource="http://purl.org/dc/dcmitype/StillImage" />
        <dc:title></dc:title>
      </cc:Work>
    </rdf:RDF>
  </metadata>
  <defs
     id="defs8" />
  <sodipodi:namedview
     pagecolor="#ffffff"
     bordercolor="#666666"
     borderopacity="1"
     objecttolerance="10"
     gridtolerance="10"
     guidetolerance="10"
     inkscape:pageopacity="0"
     inkscape:pageshadow="2"
     inkscape:window-width="3840"
     inkscape:window-height="1973"
     id="namedview6"
     showgrid="false"
     inkscape:zoom="0.4609375"
     inkscape:cx="255.91304"
     inkscape:cy="256.0394"
     inkscape:window-x="-18"
     inkscape:window-y="-18"
     inkscape:window-maximized="1"
     inkscape:current-layer="svg4" />
  <path
     d="M 27.495161,0.50588733 1.4971671,19.248257 c -2.14983415,1.5547 -1.94360006,5.5313 0.3562225,6.711 l 7.1431991,3.69535 v 6.59382 c 0,3.62503 3.6997143,5.11723 5.4120823,2.23439 l 2.737289,-4.61723 6.99321,3.60941 c 0.368722,0.1875 0.756192,0.28125 1.143663,0.28125 0.51246,0 1.018671,-0.16406 1.474885,-0.48438 0.799938,-0.5625 1.349896,-1.56251 1.493635,-2.69534 L 31.963567,4.3262373 c 0.381221,-3.13285 -2.306072,-5.37506 -4.468406,-3.82034997 z M 11.996357,36.248427 v -5.04693 l 2.287324,1.1797 z m 13.286476,-2.24221 -9.611759,-4.96099 8.761824,-15.80484 c 0.668699,-1.21095 -0.593705,-2.61722 -1.481136,-1.65627 L 9.7340319,25.982697 2.9970513,22.498287 28.995046,3.7480973 Z"
     id="path2"
     inkscape:connector-curvature="0"
     style="fill:currentColor;stroke-width:0.06987477" />
</svg>
