<?xml version="1.0" encoding="UTF-8" standalone="no"?>
<svg
   xmlns:dc="http://purl.org/dc/elements/1.1/"
   xmlns:cc="http://creativecommons.org/ns#"
   xmlns:rdf="http://www.w3.org/1999/02/22-rdf-syntax-ns#"
   xmlns:svg="http://www.w3.org/2000/svg"
   xmlns="http://www.w3.org/2000/svg"
   xmlns:sodipodi="http://sodipodi.sourceforge.net/DTD/sodipodi-0.dtd"
   xmlns:inkscape="http://www.inkscape.org/namespaces/inkscape"
   aria-hidden="true"
   focusable="false"
   data-prefix="far"
   data-icon="paper-plane"
   class="svg-inline--fa fa-paper-plane fa-w-16"
   role="img"
   viewBox="0 0 16 40"
   version="1.1"
   id="svg4"
   sodipodi:docname="paper-plane-regular32.svg"
   width="16"
   height="40"
   inkscape:version="0.92.3 (2405546, 2018-03-11)">
  <metadata
     id="metadata10">
    <rdf:RDF>
      <cc:Work
         rdf:about="">
        <dc:format>image/svg+xml</dc:format>
        <dc:type
           rdf:resource="http://purl.org/dc/dcmitype/StillImage" />
        <dc:title></dc:title>
      </cc:Work>
    </rdf:RDF>
  </metadata>
  <defs
     id="defs8" />
  <sodipodi:namedview
     pagecolor="#ffffff"
     bordercolor="#666666"
     borderopacity="1"
     objecttolerance="10"
     gridtolerance="10"
     guidetolerance="10"
     inkscape:pageopacity="0"
     inkscape:pageshadow="2"
     inkscape:window-width="3840"
     inkscape:window-height="1973"
     id="namedview6"
     showgrid="false"
     inkscape:zoom="0.4609375"
     inkscape:cx="255.91304"
     inkscape:cy="256.0394"
     inkscape:window-x="-18"
     inkscape:window-y="-18"
     inkscape:window-maximized="1"
     inkscape:current-layer="svg4" />
  <path
     d="M 13.74758,0.50588738 0.74858354,19.248259 c -1.07491706,1.5547 -0.97180002,5.531301 0.17811125,6.711001 l 3.57159951,3.69535 v 6.593821 c 0,3.62503 1.8498572,5.11723 2.7060412,2.23439 l 1.3686444,-4.617231 3.4966051,3.609411 c 0.184361,0.1875 0.378096,0.28125 0.571831,0.28125 0.25623,0 0.509336,-0.16406 0.737443,-0.48438 0.399969,-0.5625 0.674948,-1.56251 0.746817,-2.69534 L 15.981783,4.3262377 C 16.172394,1.1933874 14.828747,-1.0488228 13.74758,0.50588738 Z M 5.9981785,36.248431 V 31.2015 l 1.143662,1.1797 z M 12.641416,34.00622 7.8355369,29.04523 12.216449,13.240389 c 0.334349,-1.210951 -0.296853,-2.617221 -0.740568,-1.656271 L 4.8670159,25.9827 1.4985256,22.498289 14.497523,3.7480976 Z"
     id="path2"
     inkscape:connector-curvature="0"
     style="fill:currentColor;stroke-width:0.04940893" />
</svg>
