<?xml version="1.0" encoding="UTF-8" standalone="no"?>
<svg
   xmlns:dc="http://purl.org/dc/elements/1.1/"
   xmlns:cc="http://creativecommons.org/ns#"
   xmlns:rdf="http://www.w3.org/1999/02/22-rdf-syntax-ns#"
   xmlns:svg="http://www.w3.org/2000/svg"
   xmlns="http://www.w3.org/2000/svg"
   xmlns:sodipodi="http://sodipodi.sourceforge.net/DTD/sodipodi-0.dtd"
   xmlns:inkscape="http://www.inkscape.org/namespaces/inkscape"
   aria-hidden="true"
   focusable="false"
   data-prefix="far"
   data-icon="paper-plane"
   class="svg-inline--fa fa-paper-plane fa-w-16"
   role="img"
   viewBox="0 0 25 25"
   version="1.1"
   id="svg4"
   sodipodi:docname="paper-plane-regular32.svg"
   width="25"
   height="25"
   inkscape:version="0.92.3 (2405546, 2018-03-11)">
  <metadata
     id="metadata10">
    <rdf:RDF>
      <cc:Work
         rdf:about="">
        <dc:format>image/svg+xml</dc:format>
        <dc:type
           rdf:resource="http://purl.org/dc/dcmitype/StillImage" />
        <dc:title></dc:title>
      </cc:Work>
    </rdf:RDF>
  </metadata>
  <defs
     id="defs8" />
  <sodipodi:namedview
     pagecolor="#ffffff"
     bordercolor="#666666"
     borderopacity="1"
     objecttolerance="10"
     gridtolerance="10"
     guidetolerance="10"
     inkscape:pageopacity="0"
     inkscape:pageshadow="2"
     inkscape:window-width="3840"
     inkscape:window-height="1973"
     id="namedview6"
     showgrid="false"
     inkscape:zoom="0.4609375"
     inkscape:cx="255.91304"
     inkscape:cy="256.0394"
     inkscape:window-x="-18"
     inkscape:window-y="-18"
     inkscape:window-maximized="1"
     inkscape:current-layer="svg4" />
  <path
     d="M 21.480595,0.31617961 1.1696618,12.030162 c -1.67955793,0.971688 -1.51843755,3.457063 0.2782988,4.194375 l 5.5806243,2.309594 v 4.121138 c 0,2.265644 2.8904019,3.198269 4.2281891,1.396494 l 2.138507,-2.885769 5.463446,2.255882 c 0.288063,0.117187 0.590775,0.175781 0.893486,0.175781 0.400359,0 0.795837,-0.102538 1.152254,-0.302738 0.624952,-0.351562 1.054606,-0.976568 1.166903,-1.684587 L 24.971537,2.7038986 C 25.269365,0.74586761 23.169918,-0.65551439 21.480595,0.31617961 Z M 9.3721543,22.655269 V 19.500938 L 11.159125,20.23825 Z M 19.752213,21.253888 12.243027,18.153269 19.088202,8.2752426 c 0.52242,-0.756844 -0.463832,-1.635763 -1.157138,-1.035169 L 7.6047124,16.239187 2.3414463,14.061431 22.65238,2.3425606 Z"
     id="path2"
     inkscape:connector-curvature="0"
     style="fill:currentColor;stroke-width:0.04882648" />
</svg>
