<?xml version="1.0" encoding="UTF-8" standalone="no"?>
<svg
   viewBox="0 0 28.799995 24.252569"
   version="1.1"
   id="svg19"
   sodipodi:docname="person-chalkboard-solid32.svg"
   inkscape:export-filename="C:\Users\mc72574\Dropbox\Hugo\Sites\website_github\exampleSite\fontawesome\person-chalkboard-solid32.png"
   inkscape:export-xdpi="4.875"
   inkscape:export-ydpi="4.875"
   width="28.799995"
   height="24.252569"
   inkscape:version="1.1.2 (b8e25be833, 2022-02-05)"
   xmlns:inkscape="http://www.inkscape.org/namespaces/inkscape"
   xmlns:sodipodi="http://sodipodi.sourceforge.net/DTD/sodipodi-0.dtd"
   xmlns="http://www.w3.org/2000/svg"
   xmlns:svg="http://www.w3.org/2000/svg">
  <defs
     id="defs23" />
  <sodipodi:namedview
     id="namedview21"
     pagecolor="#ffffff"
     bordercolor="#666666"
     borderopacity="1.0"
     inkscape:pageshadow="2"
     inkscape:pageopacity="0.0"
     inkscape:pagecheckerboard="0"
     showgrid="false"
     inkscape:zoom="4.6077784"
     inkscape:cx="13.56402"
     inkscape:cy="12.370387"
     inkscape:window-width="2560"
     inkscape:window-height="1377"
     inkscape:window-x="-8"
     inkscape:window-y="-8"
     inkscape:window-maximized="1"
     inkscape:current-layer="svg19" />
  <!--! Font Awesome Pro 6.1.1 by @fontawesome - https://fontawesome.com License - https://fontawesome.com/license (Commercial License) Copyright 2022 Fonticons, Inc. -->
  <path
     d="M 5.3053167,2.273679 C 5.3053167,1.017945 6.3237297,0 7.5789957,0 c 1.2552565,0 2.2736785,1.017945 2.2736785,2.273679 0,1.255734 -1.018422,2.273679 -2.2736785,2.273679 -1.255266,0 -2.273679,-1.017945 -2.273679,-2.273679 z m 0.378945,21.978891 c -0.838422,0 -1.515789,-0.677367 -1.515789,-1.51578 V 12.168918 l -1.353312,2.254734 c -0.431055,0.715257 -1.362312,0.947367 -2.07994507,0.516312 -0.717624,-0.431055 -0.949734,-1.359468 -0.518202,-2.079468 L 2.9771607,8.270505 C 3.7990047,6.90156 5.2768947,6.063138 6.8732067,6.063138 H 13.642133 V 2.273679 c 0,-1.255734 1.018422,-2.27367 2.273688,-2.27367 h 10.610496 c 1.255266,0 2.273679,1.017936 2.273679,2.27367 v 10.610496 c 0,1.255266 -1.018413,2.273679 -2.273679,2.273679 H 15.915821 c -1.255266,0 -2.273688,-1.018413 -2.273688,-2.273679 v -2.273679 h 3.031578 v 1.515789 h 9.094716 V 3.031569 h -9.094716 v 3.031569 h 0.75789 c 0.838422,0 1.515789,0.677367 1.515789,1.515789 0,0.838422 -0.677367,1.515789 -1.515789,1.515789 H 10.989509 V 22.73679 c 0,0.838413 -0.677367,1.51578 -1.5157798,1.51578 -0.838422,0 -1.5157885,-0.677367 -1.5157885,-1.51578 v -6.063147 h -0.75789 v 6.063147 c 0,0.838413 -0.677367,1.51578 -1.515789,1.51578 z"
     id="path17"
     style="stroke-width:0.0473684" />
</svg>
