<?xml version="1.0" encoding="UTF-8" standalone="no"?>
<svg
   viewBox="0 0 20.159998 16.976799"
   version="1.1"
   id="svg19"
   sodipodi:docname="person-chalkboard-solid32.svg"
   inkscape:export-filename="C:\Users\mc72574\Dropbox\Hugo\Sites\website_github\exampleSite\fontawesome\person-chalkboard-solid32.png"
   inkscape:export-xdpi="4.875"
   inkscape:export-ydpi="4.875"
   width="20.159998"
   height="16.976799"
   inkscape:version="1.1.2 (b8e25be833, 2022-02-05)"
   xmlns:inkscape="http://www.inkscape.org/namespaces/inkscape"
   xmlns:sodipodi="http://sodipodi.sourceforge.net/DTD/sodipodi-0.dtd"
   xmlns="http://www.w3.org/2000/svg"
   xmlns:svg="http://www.w3.org/2000/svg">
  <defs
     id="defs23" />
  <sodipodi:namedview
     id="namedview21"
     pagecolor="#ffffff"
     bordercolor="#666666"
     borderopacity="1.0"
     inkscape:pageshadow="2"
     inkscape:pageopacity="0.0"
     inkscape:pagecheckerboard="0"
     showgrid="false"
     inkscape:zoom="4.6077784"
     inkscape:cx="9.2235339"
     inkscape:cy="8.6809731"
     inkscape:window-width="2560"
     inkscape:window-height="1377"
     inkscape:window-x="-8"
     inkscape:window-y="-8"
     inkscape:window-maximized="1"
     inkscape:current-layer="svg19" />
  <!--! Font Awesome Pro 6.1.1 by @fontawesome - https://fontawesome.com License - https://fontawesome.com/license (Commercial License) Copyright 2022 Fonticons, Inc. -->
  <path
     d="M 3.7137217,1.5915753 C 3.7137217,0.7125615 4.4266108,0 5.305297,0 c 0.8786796,0 1.5915746,0.7125615 1.5915746,1.5915753 0,0.8790138 -0.712895,1.5915753 -1.5915746,1.5915753 -0.8786862,0 -1.5915753,-0.7125615 -1.5915753,-1.5915753 z M 3.9789832,16.9768 c -0.5868954,0 -1.0610523,-0.474158 -1.0610523,-1.061046 V 8.5182425 L 1.9706125,10.096556 C 1.668874,10.597237 1.0169941,10.759714 0.51465094,10.457974 0.01231414,10.156236 -0.15016286,9.5063475 0.15190954,9.0023475 L 2.0840125,5.7893535 C 2.6593033,4.831092 3.6938263,4.2441966 4.8112447,4.2441966 H 9.5494936 V 1.5915753 c 0,-0.8790138 0.7128954,-1.591569 1.5915814,-1.591569 h 7.427347 c 0.878687,0 1.591576,0.7125552 1.591576,1.591569 v 7.4273472 c 0,0.878686 -0.712889,1.5915755 -1.591576,1.5915755 h -7.427347 c -0.878686,0 -1.5915814,-0.7128895 -1.5915814,-1.5915755 v -1.591575 h 2.1221044 v 1.061052 h 6.366301 V 2.1220983 h -6.366301 v 2.1220983 h 0.530523 c 0.586896,0 1.061052,0.4741569 1.061052,1.0610523 0,0.5868954 -0.474156,1.0610526 -1.061052,1.0610526 H 7.6926566 v 9.5494515 c 0,0.586889 -0.474157,1.061045 -1.061046,1.061045 -0.586896,0 -1.0610521,-0.474156 -1.0610521,-1.061045 V 11.67155 h -0.530523 v 4.244203 c 0,0.586889 -0.4741569,1.061045 -1.0610523,1.061047 z"
     id="path17"
     style="stroke-width:0.0331579" />
</svg>
