<?xml version="1.0" encoding="UTF-8" standalone="no"?>
<svg
   viewBox="0 0 31.999996 26.9473"
   version="1.1"
   id="svg19"
   sodipodi:docname="person-chalkboard-solid32.svg"
   inkscape:export-filename="C:\Users\mc72574\Dropbox\Hugo\Sites\website_github\exampleSite\fontawesome\person-chalkboard-solid32.png"
   inkscape:export-xdpi="4.875"
   inkscape:export-ydpi="4.875"
   width="31.999996"
   height="26.9473"
   inkscape:version="1.1.2 (b8e25be833, 2022-02-05)"
   xmlns:inkscape="http://www.inkscape.org/namespaces/inkscape"
   xmlns:sodipodi="http://sodipodi.sourceforge.net/DTD/sodipodi-0.dtd"
   xmlns="http://www.w3.org/2000/svg"
   xmlns:svg="http://www.w3.org/2000/svg">
  <defs
     id="defs23" />
  <sodipodi:namedview
     id="namedview21"
     pagecolor="#ffffff"
     bordercolor="#666666"
     borderopacity="1.0"
     inkscape:pageshadow="2"
     inkscape:pageopacity="0.0"
     inkscape:pagecheckerboard="0"
     showgrid="false"
     inkscape:zoom="4.6077784"
     inkscape:cx="15.083191"
     inkscape:cy="13.672533"
     inkscape:window-width="2560"
     inkscape:window-height="1377"
     inkscape:window-x="-8"
     inkscape:window-y="-8"
     inkscape:window-maximized="1"
     inkscape:current-layer="svg19" />
  <!--! Font Awesome Pro 6.1.1 by @fontawesome - https://fontawesome.com License - https://fontawesome.com/license (Commercial License) Copyright 2022 Fonticons, Inc. -->
  <path
     d="M 5.8947963,2.52631 C 5.8947963,1.13105 7.0263663,0 8.4211063,0 c 1.39473,0 2.5263097,1.13105 2.5263097,2.52631 0,1.39526 -1.1315797,2.52631 -2.5263097,2.52631 -1.39474,0 -2.52631,-1.13105 -2.52631,-2.52631 z m 0.42105,24.42099 c -0.93158,0 -1.68421,-0.75263 -1.68421,-1.6842 V 13.52102 l -1.50368,2.50526 c -0.47895,0.79473 -1.51368,1.05263 -2.31105004,0.57368 -0.79736,-0.47895 -1.05526,-1.51052 -0.57578,-2.31052 L 3.3079563,9.18945 c 0.91316,-1.52105 2.55526,-2.45263 4.32894,-2.45263 H 15.157926 V 2.52631 c 0,-1.39526 1.13158,-2.5263 2.52632,-2.5263 h 11.78944 c 1.39474,0 2.52631,1.13104 2.52631,2.5263 v 11.78944 c 0,1.39474 -1.13157,2.52631 -2.52631,2.52631 h -11.78944 c -1.39474,0 -2.52632,-1.13157 -2.52632,-2.52631 v -2.52631 h 3.36842 v 1.68421 h 10.10524 V 3.36841 h -10.10524 v 3.36841 h 0.8421 c 0.93158,0 1.68421,0.75263 1.68421,1.68421 0,0.93158 -0.75263,1.68421 -1.68421,1.68421 h -7.15788 V 25.2631 c 0,0.93157 -0.75263,1.6842 -1.6842,1.6842 -0.9315797,0 -1.6842097,-0.75263 -1.6842097,-1.6842 v -6.73683 h -0.8421 v 6.73683 c 0,0.93157 -0.75263,1.6842 -1.68421,1.6842 z"
     id="path17"
     style="stroke-width:0.0526315" />
</svg>
