<?xml version="1.0" encoding="UTF-8" standalone="no"?>
<svg
   xmlns:dc="http://purl.org/dc/elements/1.1/"
   xmlns:cc="http://creativecommons.org/ns#"
   xmlns:rdf="http://www.w3.org/1999/02/22-rdf-syntax-ns#"
   xmlns:svg="http://www.w3.org/2000/svg"
   xmlns="http://www.w3.org/2000/svg"
   xmlns:sodipodi="http://sodipodi.sourceforge.net/DTD/sodipodi-0.dtd"
   xmlns:inkscape="http://www.inkscape.org/namespaces/inkscape"
   aria-hidden="true"
   focusable="false"
   data-prefix="fab"
   data-icon="twitter-square"
   class="svg-inline--fa fa-twitter-square fa-w-14"
   role="img"
   viewBox="0 0 25 25"
   version="1.1"
   id="svg4"
   sodipodi:docname="twitter-square-brands25.svg"
   width="25"
   height="25"
   inkscape:version="0.92.3 (2405546, 2018-03-11)">
  <metadata
     id="metadata10">
    <rdf:RDF>
      <cc:Work
         rdf:about="">
        <dc:format>image/svg+xml</dc:format>
        <dc:type
           rdf:resource="http://purl.org/dc/dcmitype/StillImage" />
        <dc:title></dc:title>
      </cc:Work>
    </rdf:RDF>
  </metadata>
  <defs
     id="defs8" />
  <sodipodi:namedview
     pagecolor="#ffffff"
     bordercolor="#666666"
     borderopacity="1"
     objecttolerance="10"
     gridtolerance="10"
     guidetolerance="10"
     inkscape:pageopacity="0"
     inkscape:pageshadow="2"
     inkscape:window-width="3840"
     inkscape:window-height="1973"
     id="namedview6"
     showgrid="false"
     inkscape:zoom="0.4609375"
     inkscape:cx="224"
     inkscape:cy="224"
     inkscape:window-x="-18"
     inkscape:window-y="-18"
     inkscape:window-maximized="1"
     inkscape:current-layer="svg4" />
  <path
     d="M 22.321429,0 H 2.6785714 C 1.1997768,0 0,1.19978 0,2.67857 V 22.32143 C 0,23.80022 1.1997768,25 2.6785714,25 H 22.321429 C 23.800223,25 25,23.80022 25,22.32143 V 2.67857 C 25,1.19978 23.800223,0 22.321429,0 Z m -2.728795,8.86161 c 0.01116,0.15625 0.01116,0.31808 0.01116,0.47433 0,4.83817 -3.683036,10.41294 -10.4129468,10.41294 -2.0758928,0 -4.0011161,-0.60267 -5.6194196,-1.64062 0.2957589,0.0335 0.5803571,0.0446 0.8816964,0.0446 1.7131696,0 3.2868304,-0.58036 4.5424107,-1.5625 C 7.3883919,16.55686 6.0379454,15.50219 5.5747758,14.0513 6.1383919,14.135 6.6462044,14.135 7.2265615,13.9843 5.5524554,13.6439 4.296875,12.17069 4.296875,10.39055 v -0.0446 c 0.4854911,0.27344 1.0546875,0.44085 1.6517857,0.46317 A 3.6521763,3.6521763 0 0 1 4.3191964,7.76225 c 0,-0.68081 0.1785715,-1.30581 0.4966518,-1.8471 1.8024554,2.22098 4.5089286,3.67187 7.5446428,3.82812 -0.518973,-2.48326 1.339286,-4.49776 3.571429,-4.49776 1.054687,0 2.003348,0.44084 2.672991,1.15513 0.825893,-0.15625 1.618303,-0.46317 2.321428,-0.8817 -0.273437,0.84822 -0.848214,1.5625 -1.607143,2.01451 0.736608,-0.0781 1.450893,-0.2846 2.109375,-0.56919 C 20.93192,7.69528 20.30692,8.3426 19.592634,8.86158 Z"
     id="path2"
     inkscape:connector-curvature="0"
     style="fill:currentColor;stroke-width:0.05580357" />
</svg>
