<?xml version="1.0" encoding="UTF-8" standalone="no"?>
<svg
   xmlns:dc="http://purl.org/dc/elements/1.1/"
   xmlns:cc="http://creativecommons.org/ns#"
   xmlns:rdf="http://www.w3.org/1999/02/22-rdf-syntax-ns#"
   xmlns:svg="http://www.w3.org/2000/svg"
   xmlns="http://www.w3.org/2000/svg"
   xmlns:sodipodi="http://sodipodi.sourceforge.net/DTD/sodipodi-0.dtd"
   xmlns:inkscape="http://www.inkscape.org/namespaces/inkscape"
   width="209.83784mm"
   height="209.83784mm"
   viewBox="0 0 209.83784 209.83784"
   version="1.1"
   id="svg921"
   inkscape:version="1.0.1 (3bc2e813f5, 2020-09-07)"
   sodipodi:docname="favicon32.svg"
   inkscape:export-filename="C:\Users\mc72574\Dropbox\Hugo\Sites\website_github\static\images\favicon-32x32.png"
   inkscape:export-xdpi="3.8734672"
   inkscape:export-ydpi="3.8734672">
  <defs
     id="defs915">
    <pattern
       id="EMFhbasepattern"
       patternUnits="userSpaceOnUse"
       width="6"
       height="6"
       x="0"
       y="0" />
  </defs>
  <sodipodi:namedview
     id="base"
     pagecolor="#ffffff"
     bordercolor="#666666"
     borderopacity="1.0"
     inkscape:pageopacity="0.0"
     inkscape:pageshadow="2"
     inkscape:zoom="0.35"
     inkscape:cx="399.40111"
     inkscape:cy="326.64879"
     inkscape:document-units="mm"
     inkscape:current-layer="layer1"
     inkscape:document-rotation="0"
     showgrid="false"
     fit-margin-top="0"
     fit-margin-left="0"
     fit-margin-right="0"
     fit-margin-bottom="0"
     inkscape:window-width="1267"
     inkscape:window-height="955"
     inkscape:window-x="102"
     inkscape:window-y="8"
     inkscape:window-maximized="0" />
  <metadata
     id="metadata918">
    <rdf:RDF>
      <cc:Work
         rdf:about="">
        <dc:format>image/svg+xml</dc:format>
        <dc:type
           rdf:resource="http://purl.org/dc/dcmitype/StillImage" />
        <dc:title></dc:title>
      </cc:Work>
    </rdf:RDF>
  </metadata>
  <g
     inkscape:label="Layer 1"
     inkscape:groupmode="layer"
     id="layer1"
     transform="translate(-0.15845708,-61.740842)">
    <path
       style="fill:#000000;fill-opacity:1;fill-rule:nonzero;stroke:none;stroke-width:0.264583"
       d="m 118.85911,209.64671 h -18.78462 l -1.04711,-38.74327 c -0.0846,-1.91443 -0.12692,-4.51635 -0.12692,-7.82693 0,-4.34712 0.12692,-8.57788 0.39134,-12.71346 0.26443,-4.125 0.57115,-8.45096 0.90962,-12.97789 L 90.03699,194.25728 H 73.8543 L 62.76969,137.38516 c 0.9625,9.9952 1.43846,18.99616 1.43846,27.00289 l -0.1375,6.90673 -0.64519,38.35193 H 45.03219 l 5.0875,-90.39039 H 72.162 l 10.048071,58.4375 9.519229,-58.4375 h 22.04231 z m 26.87596,-12.39616 c 0,-3.91346 1.41731,-7.29807 4.24135,-10.175 2.82403,-2.86634 6.24038,-4.29423 10.23846,-4.29423 3.99807,0 7.41442,1.42789 10.23846,4.29423 2.82404,2.87693 4.24135,6.26154 4.24135,10.175 0,4.00866 -1.41731,7.43558 -4.24135,10.3125 -2.82404,2.86635 -6.24039,4.30481 -10.23846,4.30481 -3.99808,0 -7.41443,-1.43846 -10.23846,-4.30481 -2.82404,-2.87692 -4.24135,-6.30384 -4.24135,-10.3125 z"
       id="path1487" />
    <path
       style="fill:none;stroke:#ffffff;stroke-width:8.8px;stroke-linecap:butt;stroke-linejoin:miter;stroke-miterlimit:8;stroke-dasharray:none;stroke-opacity:1"
       d="m 128.76969,173.45248 21.95769,-25.88174"
       id="path1489" />
    <path
       style="fill:none;stroke:#ffffff;stroke-width:8.8px;stroke-linecap:butt;stroke-linejoin:miter;stroke-miterlimit:8;stroke-dasharray:none;stroke-opacity:1"
       d="m 93.86584,161.53228 26.7649,16.63221"
       id="path1491" />
    <path
       style="fill:none;stroke:#ffffff;stroke-width:8.8px;stroke-linecap:butt;stroke-linejoin:miter;stroke-miterlimit:8;stroke-dasharray:none;stroke-opacity:1"
       d="M 59.97738,184.32026 81.586032,159.88228"
       id="path1493" />
    <path
       style="fill:#ffffff;fill-opacity:1;fill-rule:evenodd;stroke:none;stroke-width:0.264583"
       d="m 145.84084,142.17651 c 0,-5.60577 4.54808,-10.15384 10.15385,-10.15384 5.61634,0 10.15384,4.54807 10.15384,10.15384 0,5.61635 -4.5375,10.15385 -10.15384,10.15385 -5.60577,0 -10.15385,-4.5375 -10.15385,-10.15385 z"
       id="path1495" />
    <path
       style="fill:none;stroke:#ffffff;stroke-width:3.17308px;stroke-linecap:butt;stroke-linejoin:miter;stroke-miterlimit:8;stroke-dasharray:none;stroke-opacity:1"
       d="m 145.84084,142.17651 c 0,-5.60577 4.54808,-10.15384 10.15385,-10.15384 5.61634,0 10.15384,4.54807 10.15384,10.15384 0,5.61635 -4.5375,10.15385 -10.15384,10.15385 -5.60577,0 -10.15385,-4.5375 -10.15385,-10.15385"
       id="path1497" />
    <path
       style="fill:#ffffff;fill-opacity:1;fill-rule:evenodd;stroke:none;stroke-width:0.264583"
       d="m 115.16776,180.29575 c 0,-5.60577 4.54808,-10.15385 10.15385,-10.15385 5.61106,0 10.15385,4.54808 10.15385,10.15385 0,5.61105 -4.54279,10.15384 -10.15385,10.15384 -5.60577,0 -10.15385,-4.54279 -10.15385,-10.15384 z"
       id="path1499" />
    <path
       style="fill:none;stroke:#ffffff;stroke-width:3.17308px;stroke-linecap:butt;stroke-linejoin:miter;stroke-miterlimit:8;stroke-dasharray:none;stroke-opacity:1"
       d="m 115.16776,180.29575 c 0,-5.60577 4.54808,-10.15385 10.15385,-10.15385 5.61634,0 10.15385,4.54808 10.15385,10.15385 0,5.61634 -4.53751,10.15384 -10.15385,10.15384 -5.60577,0 -10.15385,-4.5375 -10.15385,-10.15384"
       id="path1501" />
    <path
       style="fill:#ffffff;fill-opacity:1;fill-rule:evenodd;stroke:none;stroke-width:0.264583"
       d="m 76.16007,154.95343 c 0,-5.60577 4.548078,-10.15384 10.15385,-10.15384 5.61106,0 10.15384,4.54807 10.15384,10.15384 0,5.61106 -4.54278,10.15385 -10.15384,10.15385 -5.605772,0 -10.15385,-4.54279 -10.15385,-10.15385 z"
       id="path1503" />
    <path
       style="fill:none;stroke:#ffffff;stroke-width:3.17308px;stroke-linecap:butt;stroke-linejoin:miter;stroke-miterlimit:8;stroke-dasharray:none;stroke-opacity:1"
       d="m 76.16007,154.95343 c 0,-5.60577 4.548078,-10.15384 10.15385,-10.15384 5.61106,0 10.15384,4.54807 10.15384,10.15384 0,5.61106 -4.54278,10.15385 -10.15384,10.15385 -5.605772,0 -10.15385,-4.54279 -10.15385,-10.15385"
       id="path1505" />
    <path
       style="fill:#ffffff;fill-opacity:1;fill-rule:evenodd;stroke:none;stroke-width:0.264583"
       d="m 43.79469,189.98421 c 0,-5.60577 4.54807,-10.15385 10.15384,-10.15385 5.61106,0 10.15385,4.54808 10.15385,10.15385 0,5.61105 -4.54279,10.15384 -10.15385,10.15384 -5.60577,0 -10.15384,-4.54279 -10.15384,-10.15384 z"
       id="path1507" />
    <path
       style="fill:none;stroke:#ffffff;stroke-width:3.17308px;stroke-linecap:butt;stroke-linejoin:miter;stroke-miterlimit:8;stroke-dasharray:none;stroke-opacity:1"
       d="m 43.79469,189.98421 c 0,-5.60577 4.54807,-10.15385 10.15384,-10.15385 5.61106,0 10.15385,4.54808 10.15385,10.15385 0,5.61105 -4.54279,10.15384 -10.15385,10.15384 -5.60577,0 -10.15384,-4.54279 -10.15384,-10.15384"
       id="path1509" />
    <path
       style="fill:#5601a4;fill-opacity:1;fill-rule:evenodd;stroke:none;stroke-width:0.264583"
       d="m 46.33315,190.15344 c 0,-4.20433 3.41106,-7.61539 7.61538,-7.61539 4.20962,0 7.61539,3.41106 7.61539,7.61539 0,4.20961 -3.40577,7.61538 -7.61539,7.61538 -4.20432,0 -7.61538,-3.40577 -7.61538,-7.61538 z"
       id="path1511" />
    <path
       style="fill:none;stroke:#000000;stroke-width:3.17308px;stroke-linecap:butt;stroke-linejoin:miter;stroke-miterlimit:8;stroke-dasharray:none;stroke-opacity:1"
       d="m 46.33315,190.15344 c 0,-4.20433 3.41106,-7.61539 7.61538,-7.61539 4.20962,0 7.61539,3.41106 7.61539,7.61539 0,4.20961 -3.40577,7.61538 -7.61539,7.61538 -4.20432,0 -7.61538,-3.40577 -7.61538,-7.61538"
       id="path1513" />
    <path
       style="fill:#bf3984;fill-opacity:1;fill-rule:evenodd;stroke:none;stroke-width:0.264583"
       d="m 78.698531,154.95343 c 0,-4.20432 3.411059,-7.61538 7.615389,-7.61538 4.20961,0 7.61538,3.41106 7.61538,7.61538 0,4.20962 -3.40577,7.61539 -7.61538,7.61539 -4.20433,0 -7.615389,-3.40577 -7.615389,-7.61539 z"
       id="path1515" />
    <path
       style="fill:none;stroke:#000000;stroke-width:3.17308px;stroke-linecap:butt;stroke-linejoin:miter;stroke-miterlimit:8;stroke-dasharray:none;stroke-opacity:1"
       d="m 78.698531,154.95343 c 0,-4.20432 3.411059,-7.61538 7.615389,-7.61538 4.20961,0 7.61538,3.41106 7.61538,7.61538 0,4.20962 -3.40577,7.61539 -7.61538,7.61539 -4.20433,0 -7.615389,-3.40577 -7.615389,-7.61539"
       id="path1517" />
    <path
       style="fill:#f89441;fill-opacity:1;fill-rule:evenodd;stroke:none;stroke-width:0.264583"
       d="m 118.10286,182.77603 c -1.375,-3.97692 0.7351,-8.30817 4.71202,-9.68317 3.97692,-1.36971 8.31346,0.74038 9.68317,4.71202 1.375,3.97692 -0.7351,8.31346 -4.71202,9.68317 -3.97692,1.375 -8.31346,-0.73509 -9.68317,-4.71202 z"
       id="path1519" />
    <path
       style="fill:none;stroke:#000000;stroke-width:3.17308px;stroke-linecap:butt;stroke-linejoin:miter;stroke-miterlimit:8;stroke-dasharray:none;stroke-opacity:1"
       d="m 118.10815,182.78132 c -1.375,-3.97692 0.72981,-8.31346 4.70673,-9.68846 3.97692,-1.36442 8.31346,0.74038 9.68846,4.71731 1.375,3.97692 -0.74039,8.31346 -4.71731,9.67788 -3.97692,1.375 -8.31346,-0.7298 -9.67788,-4.70673"
       id="path1521" />
    <path
       style="fill:#fcce25;fill-opacity:1;fill-rule:evenodd;stroke:none;stroke-width:0.264583"
       d="m 148.3793,142.17651 c 0,-4.19904 3.41635,-7.61538 7.61539,-7.61538 4.20961,0 7.61538,3.41634 7.61538,7.61538 0,4.20961 -3.40577,7.61538 -7.61538,7.61538 -4.19904,0 -7.61539,-3.40577 -7.61539,-7.61538 z"
       id="path1523" />
    <path
       style="fill:none;stroke:#000000;stroke-width:3.17308px;stroke-linecap:butt;stroke-linejoin:miter;stroke-miterlimit:8;stroke-dasharray:none;stroke-opacity:1"
       d="m 148.3793,142.17651 c 0,-4.19904 3.41635,-7.61538 7.61539,-7.61538 4.20961,0 7.61538,3.41634 7.61538,7.61538 0,4.20961 -3.40577,7.61538 -7.61538,7.61538 -4.19904,0 -7.61539,-3.40577 -7.61539,-7.61538"
       id="path1525" />
    <path
       style="fill:none;stroke:#000000;stroke-width:3.17308px;stroke-linecap:butt;stroke-linejoin:miter;stroke-miterlimit:8;stroke-dasharray:none;stroke-opacity:1"
       d="M 59.32161,184.76449 80.930263,160.32651"
       id="path1527" />
    <path
       style="fill:none;stroke:#000000;stroke-width:3.17308px;stroke-linecap:butt;stroke-linejoin:miter;stroke-miterlimit:8;stroke-dasharray:none;stroke-opacity:1"
       d="m 91.68699,160.32651 26.76491,16.63222"
       id="path1529" />
    <path
       style="fill:none;stroke:#000000;stroke-width:3.17308px;stroke-linecap:butt;stroke-linejoin:miter;stroke-miterlimit:8;stroke-dasharray:none;stroke-opacity:1"
       d="m 128.66392,173.47363 21.95769,-25.88174"
       id="path1531" />
    <path
       style="fill:none;stroke:#000000;stroke-width:4.23077px;stroke-linecap:butt;stroke-linejoin:miter;stroke-miterlimit:8;stroke-dasharray:none;stroke-opacity:1"
       d="M 2.5235295,166.98998 46.94661,78.143736 h 116.26154 l 44.42308,88.846244 -44.42308,88.84615 H 46.94661 Z"
       id="path1533" />
  </g>
</svg>
